<svg id="Layer_1" data-name="Layer 1" xmlns="http://www.w3.org/2000/svg" width="1920" height="490" viewBox="0 0 1920 490"><title>Artboard 1</title><path d="M898.6,206.6h56.6v10.2H910.4v32.1h42v10h-42v44.3H898.6Z" fill="#707070"/><path d="M968.5,275.9c1.9,12.6,10.3,18.6,21.8,18.6s19.2-6,19.2-16.7-5-15.2-22-20.5c-20.1-6.2-28-12.9-28-26.8s11.6-25.2,29.7-25.2c20.7,0,29.5,12.2,30.7,25.9H1008c-1.6-9.9-7.2-16.2-19.2-16.2s-17,5.6-17,14.4,5.1,12.7,20.6,17.4c23.8,7.2,29.6,16.3,29.6,29.6,0,16.1-11.1,27.9-32.2,27.9s-32-10.8-33.2-28.4Z" fill="#707070"/><path d="M982.7,105.2a24.6,24.6,0,0,0-48,.3c-70.8,11.9-124.9,73.6-124.9,147.7a148.4,148.4,0,0,0,8.7,50l12.8-8.3a133.4,133.4,0,0,1-6.7-41.7c0-66.4,48.2-121.7,111.5-132.9a24.6,24.6,0,0,0,45.5-.2,26.1,26.1,0,0,0,1.8-9.3A21,21,0,0,0,982.7,105.2Zm-23.9,15.7a10,10,0,0,1-10.1-10.1,10.1,10.1,0,0,1,10.1-10.1,10.1,10.1,0,0,1,7,2.9,10,10,0,0,1,3.1,7.2,10.1,10.1,0,0,1-3.5,7.6A9.8,9.8,0,0,1,958.8,120.9Z" fill="#ffce07"/><path d="M1034.4,365.4A134.3,134.3,0,0,1,867.8,352a24.8,24.8,0,0,0,3.9-13.5A25.8,25.8,0,0,0,846,312.7a26.9,26.9,0,0,0-7,1,25.7,25.7,0,0,0-12.5,8.1,25.3,25.3,0,0,0-6.2,16.7A25.8,25.8,0,0,0,846,364.2a26.5,26.5,0,0,0,10.6-2.3A149.4,149.4,0,0,0,1043.7,377ZM835.5,338.5a5.3,5.3,0,0,1,.1-1.3,10.5,10.5,0,0,1,10.4-9.3l1.3.2a10.4,10.4,0,0,1,9.2,10.4,9.2,9.2,0,0,1-.1,1.6A10.5,10.5,0,0,1,846,349l-1.6-.2A10.4,10.4,0,0,1,835.5,338.5Z" fill="#ffce07"/><path d="M1109.4,253.2c0-67.9-45.5-125.4-107.6-143.7l-1.2,15.2c54.4,17.4,93.9,68.4,93.9,128.5a133.9,133.9,0,0,1-15.6,63,22.2,22.2,0,0,0-3.7-.3,24.6,24.6,0,0,0-22.4,34.8,24.9,24.9,0,0,0,22.4,14.5,24.6,24.6,0,0,0,17-42.5A149.3,149.3,0,0,0,1109.4,253.2Zm-34.2,97.5-1.8-.2a10.2,10.2,0,0,1-8.3-10,9.7,9.7,0,0,1,1.6-5.3l1.2-1.6a10.1,10.1,0,0,1,7.3-3.2,10.3,10.3,0,0,1,9.1,5.7,10.5,10.5,0,0,1,1,4.4A10.2,10.2,0,0,1,1075.2,350.7Z" fill="#ffce07"/></svg>