<svg id="Layer_1" data-name="Layer 1" xmlns="http://www.w3.org/2000/svg" width="300" height="300" viewBox="0 0 300 300"><title>Artboard 1</title><path d="M102.9,120.5h43.3v7.8H111.9v24.6h32.2v7.7H111.9v33.9h-9Z" fill="#707070"/><path d="M156.4,173.6c1.5,9.6,7.9,14.2,16.7,14.2s14.7-4.6,14.7-12.7S184,163.4,171,159.3c-15.5-4.7-21.5-9.9-21.5-20.5s8.9-19.3,22.8-19.3c15.9,0,22.6,9.3,23.5,19.8h-9.1c-1.2-7.6-5.5-12.4-14.7-12.4s-13,4.3-13,11.1,3.8,9.7,15.8,13.3c18.2,5.5,22.6,12.5,22.6,22.7,0,12.3-8.5,21.3-24.7,21.3s-24.4-8.2-25.4-21.7Z" fill="#707070"/><path d="M167.3,42.8A18.8,18.8,0,0,0,149,28.2,19.1,19.1,0,0,0,130.5,43,114.7,114.7,0,0,0,41.4,194.5l9.9-6.3A103,103,0,0,1,131.6,54.4a18.8,18.8,0,0,0,36.2-7.3A20.2,20.2,0,0,0,167.3,42.8ZM149,54.8a7.6,7.6,0,0,1-5.1-1.9,7.8,7.8,0,0,1-2.7-5.8,7.4,7.4,0,0,1,2.4-5.5,7.6,7.6,0,0,1,5.4-2.3,7.9,7.9,0,0,1,5.3,2.2,7.6,7.6,0,0,1,2.4,5.6,7.8,7.8,0,0,1-7.7,7.7Z" fill="#ffce07"/><path d="M206.9,242.2A103.2,103.2,0,0,1,79.2,231.9a19.2,19.2,0,0,0,3-10.4,19.7,19.7,0,0,0-19.7-19.7,18.9,18.9,0,0,0-5.3.8,20,20,0,0,0-14.4,18.9,19.8,19.8,0,0,0,19.7,19.8,20.5,20.5,0,0,0,8.2-1.8A114.4,114.4,0,0,0,214,251.1ZM54.5,221.5a3.8,3.8,0,0,1,.1-1,8,8,0,0,1,7.9-7h1.1a8,8,0,0,1,7,7.9,5.3,5.3,0,0,1-.1,1.3,8.1,8.1,0,0,1-8,6.8H61.3A8,8,0,0,1,54.5,221.5Z" fill="#ffce07"/><path d="M264.4,156.2c0-52.1-34.9-96.1-82.5-110.1L181,57.7a103.3,103.3,0,0,1,60,146.8,12.7,12.7,0,0,0-2.8-.3,18.9,18.9,0,0,0-18.9,18.9,18.5,18.5,0,0,0,1.7,7.8,19.5,19.5,0,0,0,7.6,8.5,18.4,18.4,0,0,0,9.6,2.6,18.9,18.9,0,0,0,18.9-18.9,18.4,18.4,0,0,0-5.9-13.6A114.3,114.3,0,0,0,264.4,156.2Zm-26.2,74.7-1.4-.2a7.6,7.6,0,0,1-6.3-7.6,7.3,7.3,0,0,1,1.2-4.1l.9-1.2a7.7,7.7,0,0,1,12.5,1.9,6.9,6.9,0,0,1,.9,3.4A7.8,7.8,0,0,1,238.2,230.9Z" fill="#ffce07"/></svg>