<svg id="Layer_1" data-name="Layer 1" xmlns="http://www.w3.org/2000/svg" width="251" height="264" viewBox="0 0 251 264"><title>Artboard 1</title><g opacity="0.7"><path d="M49.9,96.3q-.7,2.4-1.5,4.5l-.9,2.3-.6,2.2-1.4,4.5-1.2,4.6c-.4,1.5-.6,3-.9,4.6a34,34,0,0,0-.8,4.6c-.1,1.5-.3,3-.5,4.6v4.6a69.4,69.4,0,0,0,.5,9.1c.1,1.5.4,3,.6,4.5s.3,1.5.5,2.3l.6,2.2a58,58,0,0,0,7.4,16.7c6.9,10.3,16.7,18.5,27.7,24.5a91.2,91.2,0,0,0,17.4,7.2,61.8,61.8,0,0,0,18.6,2.9v.4a44,44,0,0,1-9.6-.2,61,61,0,0,1-9.5-1.7,91,91,0,0,1-18.1-6.5c-11.5-5.7-22-13.8-29.7-24.5a62.5,62.5,0,0,1-8.8-17.5l-.7-2.4a21,21,0,0,1-.6-2.4,41.7,41.7,0,0,1-.8-4.9l-.3-2.5v-2.4c0-1.7-.1-3.3,0-5a68.3,68.3,0,0,1,3.9-19.1c.6-1.5,1.1-3.1,1.7-4.6l2-4.4,1.1-2.1,1.2-2.1,2.4-4.2Z" fill="#b2966d"/><path d="M46,104.9c-13.7-.9-18,10.6-17.1,18.3C41.3,125,44.4,111,46,104.9Z" fill="#62877b"/><path d="M39.3,138.3c-11.3,3.5-11.2,14.2-8,20.2C41.9,156,40,143.8,39.3,138.3Z" fill="#62877b"/><path d="M50.1,172.2c-5.3,9.9,1.8,17,7.9,18.9C63.5,182.4,54.1,175.5,50.1,172.2Z" fill="#62877b"/><path d="M83.4,196.7c-.7,9.8,7.5,12.9,13.1,12.2C97.8,200,87.7,197.8,83.4,196.7Z" fill="#62877b"/><path d="M42.9,120.1c-5.6,11.4,2.7,19.2,9.7,21.2C58.5,131.2,47.6,123.7,42.9,120.1Z" fill="#62877b"/><path d="M45.3,154.1c.7,11.1,10.4,13.3,16.5,11.7C61.9,155.6,50.3,154.7,45.3,154.1Z" fill="#62877b"/><path d="M66.8,183.6c5.7,9.9,15.6,7.5,20.6,3.3C82.8,177.4,71.7,181.9,66.8,183.6Z" fill="#62877b"/><path d="M201.5,96.1l2.4,4.2,1.2,2.1,1.1,2.1,2,4.4c.6,1.5,1.1,3.1,1.7,4.6a68.3,68.3,0,0,1,3.9,19.1c.1,1.7,0,3.3,0,5V140l-.3,2.5a41.7,41.7,0,0,1-.8,4.9,21,21,0,0,1-.6,2.4l-.7,2.4a62.5,62.5,0,0,1-8.8,17.5c-7.7,10.7-18.2,18.8-29.7,24.5a91,91,0,0,1-18.1,6.5,61,61,0,0,1-9.5,1.7,44,44,0,0,1-9.6.2v-.4a61.8,61.8,0,0,0,18.6-2.9,91.2,91.2,0,0,0,17.4-7.2c11-6,20.8-14.2,27.7-24.5a58,58,0,0,0,7.4-16.7l.6-2.2c.2-.8.3-1.5.5-2.3s.5-3,.6-4.5a69.4,69.4,0,0,0,.5-9.1v-4.6c-.2-1.6-.4-3.1-.5-4.6a34,34,0,0,0-.8-4.6c-.3-1.6-.5-3.1-.9-4.6l-1.2-4.6-1.4-4.5-.6-2.2-.9-2.3q-.7-2.1-1.5-4.5Z" fill="#b2966d"/><path d="M205,104.9c13.7-.9,18,10.6,17.1,18.3C209.7,125,206.6,111,205,104.9Z" fill="#62877b"/><path d="M211.7,138.3c11.3,3.5,11.2,14.2,8,20.2C209.1,156,211,143.8,211.7,138.3Z" fill="#62877b"/><path d="M200.9,172.2c5.3,9.9-1.8,17-7.9,18.9C187.5,182.4,196.9,175.5,200.9,172.2Z" fill="#62877b"/><path d="M167.6,196.7c.7,9.8-7.5,12.9-13.1,12.2C153.2,200,163.3,197.8,167.6,196.7Z" fill="#62877b"/><path d="M208.1,120.1c5.6,11.4-2.7,19.2-9.7,21.2C192.5,131.2,203.4,123.7,208.1,120.1Z" fill="#62877b"/><path d="M205.7,154.1c-.7,11.1-10.4,13.3-16.5,11.7C189.1,155.6,200.7,154.7,205.7,154.1Z" fill="#62877b"/><path d="M184.2,183.6c-5.7,9.9-15.6,7.5-20.6,3.3C168.2,177.4,179.3,181.9,184.2,183.6Z" fill="#62877b"/><path d="M177.2,78.9l1.2,1.5Z" fill="#9eb2c2"/><path d="M192.6,133.1h0Z" fill="#9eb2c2"/><path d="M179.5,81.8l.6.7Z" fill="#9eb2c2"/><path d="M175.2,76.6l1.2,1.4Z" fill="#9eb2c2"/><path d="M173.3,74.7l.6.6Z" fill="#9eb2c2"/><path d="M112.1,189.2l-3.9-.9Z" fill="#9eb2c2"/><path d="M57.9,120.3A87.6,87.6,0,0,1,61.5,101,68.7,68.7,0,0,0,57.9,120.3Z" fill="#9eb2c2"/><path d="M171,72.5l.3.3Z" fill="#9eb2c2"/><path d="M114.5,160.4c-1.8,1.6-3.2,1.6-4.3,4s1.1,3.2.1,6-3.4,4.2-2.8,7.8,1.8,6.4,4.6,11a68.6,68.6,0,0,0,12.8,1.3,222.1,222.1,0,0,1-9-32.2A5.9,5.9,0,0,1,114.5,160.4Z" fill="#91a4b3"/><path d="M187.5,122.8c-1.2-2.9-4.7-.2-6.9-1.6s-6.8-2.7-6.8-1.3,3.3,2.5,5.8,3.8-.7,3.1-3.4,6.5-3.9,1.1-5.9,2.1.4,1.4,2.8,1.4,1.7,2.8-3.1,6.2-3.5,2.1-2.3,8,.6,3.8-2.6,7.1-1.2,1.6-1.7,4.2-4.1,7.6-6.3,10.6-6.6.6-6.4-3.6-4-8.6-2.9-12,.9-2.8-1.7-6-.2-3.6.2-7.6-1.8-2.1-5.6-.6-7.4.3-12.6-3.9-.6-4.5-1.4-8.9,6-8.3,8.2-11.4-2.2-2.8-2.2-5.7,5.2-2,4.6-4.6-3.8-2.9-5.6-6.6,0-4.6,4.4-5.8,1.4,2.4,2.6,5.6,2,0,4.8-1.4.6-2.6-.6-4.2-3-3.6-1.8-5.2,1.8-.2,4.2-2.6,0-1.6,1.8-5.6,1.8-2.6,6.2-3.8,3.8,1.4,4.8,3.4,2.8,1.2,3.9,0,2.1-2,5.2-2.6,3.1-1.6,2.3-5.4a67.4,67.4,0,0,0-37-15.9c.7.8,2.4,2.8,2.4,4.4s-1.8,1.5-2.6,4.3-1.6,6.1-3.8,8.4-.2,2,1.1,4.4-2.1,2.8-8.1,5.6c-3.5,1.6-5,3.2-6.1,4.9a184.1,184.1,0,0,0-1.3,60.2,6.2,6.2,0,0,1,2.3,1.8c1.3,2.1.7,6.2-.5,8.9a222.1,222.1,0,0,0,9,32.2h.7a67.6,67.6,0,0,0,66.7-56.2C192,134.2,188.6,125.6,187.5,122.8Z" fill="#9eb2c2"/><path d="M98.5,169.6c-.3-2.4-2-8.4-3.9-10.6s-3-.6-7.2-5.6c0,0-4.2-3.8-3.8-7.2s2.1-3.4,1.8-6.3-6.8-3.1-7.6-4.1-9-2.4-12-4.2-4.5-5.9-7.9-10.7v1.9a67.8,67.8,0,0,0,50,65.4,35.3,35.3,0,0,0-4.2-5.5C101.7,180.7,98.9,172,98.5,169.6Z" fill="#91a4b3"/><path d="M98.2,65.1c1.4,3.6-.8,4,.7,5.2s4.1-1.4,5.7,0,2.2,6.6,2.3,11a6.2,6.2,0,0,1-4.7,6.6c-2,.6-2.7-2.6-2.8-5.4s3.2-5.2,1.2-6.4-4.1,5.2-4.6,6.5-2,1.7-3.8.3-6.2,3.2-7.8,7.2,4.1,3.4,4.1,5.2.9,3.6.9,2.4,2-2.2,3.2-4,1.1-7,4.2-7.6,4.9,5,5.2,7.8,3.8,10.1,1.7,11.6-2.8-3.6-6.2-4.4.9,3.9-.5,6-2.3,2.6-5.8,2.4-1.8,3.1-3.7,5.2-3.3,2.1-4.9,4.5,2,6.9,0,7-.8-3.2-7-5.3-5.8,5.5-4.2,8.3,8.8,2.1,8.8,4.2,2,1.8,4.2,3.2,3.2,0,4.8-1.2,5.9.8,7.8,2.4,2.5,1.2,5.2,2.2,1.9,3.8,3.8,4.8,5.3,1.4,8.1,2.8a184.1,184.1,0,0,1,1.3-60.2c-.7,1.2-1.2,2.5-2,3.9l-2.1-3.2c-2-3.3-.7-6.2,1-10s1.4-4.4,2.2-7.6-.5-1.4-3.3-3.4.4-2.6,3.3-4.3,2.8-1.6,1.9-2.5-2.7.6-5.2,2.5-3.7,3.3-5.7,2.2.2-4,2.1-7.5a63,63,0,0,0-14,5.6C94.1,62.8,96.8,61.9,98.2,65.1Z" fill="#91a4b3"/><path d="M93.6,63.1h0C74.1,73.2,65.4,88.6,61.5,101A67.6,67.6,0,0,1,93.6,63.1Z" fill="#9eb2c2"/><path d="M112.1,189.2Z" fill="#9eb2c2"/><path d="M57.9,120.9h0v0Z" fill="#9eb2c2"/><path d="M107.9,188.2h0Z" fill="#9eb2c2"/><path d="M116.4,149.4a6.2,6.2,0,0,0-2.3-1.8c.5,3.5,1.1,7.1,1.8,10.7C117.1,155.6,117.7,151.5,116.4,149.4Z" fill="#597f74"/><path d="M110.3,170.4c1-2.8-1.3-3.7-.1-6s2.5-2.4,4.3-4a5.9,5.9,0,0,0,1.4-2.1c-.7-3.6-1.3-7.2-1.8-10.7-2.8-1.4-6.7-2-8.1-2.8s-1.2-3.8-3.8-4.8-3.3-.5-5.2-2.2-6.3-3.5-7.8-2.4-2.7,2.6-4.8,1.2-4.2-1-4.2-3.2-7.2-1.4-8.8-4.2-2-10.5,4.2-8.3,5,5.5,7,5.3-1.7-4.6,0-7,3.1-2.5,4.9-4.5.1-5.5,3.7-5.2,4.4-.4,5.8-2.4-2.9-6.8.5-6,4.2,5.9,6.2,4.4-1.5-8.8-1.7-11.6-2.2-8.3-5.2-7.8-3.1,5.8-4.2,7.6-3.2,2.7-3.2,4-.9-.6-.9-2.4-5.8-1.3-4.1-5.2,6-8.6,7.8-7.2,3.2,1.1,3.8-.3,2.5-7.6,4.6-6.5-1.4,3.6-1.2,6.4.8,6,2.8,5.4a6.2,6.2,0,0,0,4.7-6.6c-.1-4.4-.7-9.6-2.3-11s-4.1,1.2-5.7,0,.7-1.6-.7-5.2-4.1-2.3-4.6-2A67.6,67.6,0,0,0,61.5,101a87.6,87.6,0,0,0-3.6,19.3v.6c3.4,4.8,5,9,7.9,10.7s11.1,3.2,12,4.2,7.2,1.1,7.6,4.1-1.4,2.9-1.8,6.3,3.8,7.2,3.8,7.2c4.2,5,5.2,3.4,7.2,5.6s3.6,8.2,3.9,10.6,3.2,11.1,5.2,13.1a35.3,35.3,0,0,1,4.2,5.5h.3l3.9.9h0c-2.8-4.6-3.9-7.5-4.6-11S109.3,173.2,110.3,170.4Z" fill="#3e7165"/><path d="M124.7,55c-13.4.3-17.1,2.5-17.1,2.5h0a68.5,68.5,0,0,1,17.1-2.4Z" fill="#9eb2c2"/><path d="M125.6,55.1q3.5,0,6.9.3l-.4-.3h-6.5Z" fill="#9eb2c2"/><path d="M124.7,55.1a193.5,193.5,0,0,0-9.3,32.3c1.1-1.7,2.6-3.3,6.1-4.9,6-2.8,9.3-3.2,8.1-5.6s-3.2-2.1-1.1-4.4,3.1-5.6,3.8-8.4,2.6-2.3,2.6-4.3-1.7-3.6-2.4-4.4q-3.5-.3-6.9-.3Z" fill="#597f74"/><path d="M105.5,65c2,1.1,3.1-.4,5.7-2.2s4.2-3.3,5.2-2.5,1.1.8-1.9,2.5-6.1,2.3-3.3,4.3,4.1.3,3.3,3.4-.4,3.8-2.2,7.6-3,6.7-1,10l2.1,3.2c.8-1.4,1.3-2.7,2-3.9a193.5,193.5,0,0,1,9.3-32.3,68.5,68.5,0,0,0-17.1,2.4C105.7,61,103.5,63.8,105.5,65Z" fill="#3e7165"/><path d="M169.5,71.2h0l1.5,1.2Z" fill="#9eb2c2"/><path d="M192.5,133.2a5.2,5.2,0,0,1-.2,1.1h.1C192.4,133.9,192.5,133.5,192.5,133.2Z" fill="#9eb2c2"/><path d="M192.6,133.1a65.5,65.5,0,0,0-12.5-50.6,67.8,67.8,0,0,1,13.2,40.3A70.4,70.4,0,0,1,192.6,133.1Z" fill="#9eb2c2"/><path d="M176.4,78l.8.9Z" fill="#9eb2c2"/><path d="M173.9,75.3a8,8,0,0,0,1.3,1.3A8,8,0,0,1,173.9,75.3Z" fill="#9eb2c2"/><path d="M178.4,80.4a13.4,13.4,0,0,1,1.1,1.4A13.4,13.4,0,0,0,178.4,80.4Z" fill="#9eb2c2"/><path d="M171.3,72.8l2,1.9Z" fill="#9eb2c2"/><path d="M192.6,133.1a70.4,70.4,0,0,0,.7-10.3,67.8,67.8,0,0,0-13.2-40.3l-.6-.7a13.4,13.4,0,0,0-1.1-1.4l-1.2-1.5-.8-.9-1.2-1.4a8,8,0,0,1-1.3-1.3l-.6-.6-2-1.9-.3-.3-1.5-1.2c.8,3.8.9,4.9-2.3,5.4s-4,1.4-5.2,2.6-2.9,2-3.9,0-.4-4.6-4.8-3.4-4.4-.2-6.2,3.8.6,3.2-1.8,5.6-2.9,1.1-4.2,2.6.6,3.7,1.8,5.2,3.4,2.8.6,4.2-3.6,4.6-4.8,1.4,1.9-6.8-2.6-5.6-6.2,2.1-4.4,5.8,5,4.1,5.6,6.6-4.6,1.6-4.6,4.6,4.4,2.7,2.2,5.7-9.1,7-8.2,11.4-3.8,4.7,1.4,8.9,8.8,5.5,12.6,3.9,6-3.3,5.6.6-2.9,4.5-.2,7.6,2.8,2.6,1.7,6,3.2,7.8,2.9,12,4.2,6.6,6.4,3.6,5.9-8.1,6.3-10.6-1.5-.9,1.7-4.2,3.8-1.3,2.6-7.1-2.6-4.6,2.3-8,5.5-6.2,3.1-6.2-4.8-.4-2.8-1.4,3.3,1.4,5.9-2.1,6-5.3,3.4-6.5-5.8-2.4-5.8-3.8,4.5-.2,6.8,1.3,5.7-1.3,6.9,1.6,4.5,11.4,4.8,11.5a5.2,5.2,0,0,0,.2-1.1Z" fill="#597f74"/></g></svg>