<svg xmlns="http://www.w3.org/2000/svg"><symbol id="case-study-3-icon" viewBox="0 0 256 256"><path fill="#fff" d="M40.4 50.8h175.2v112.33H40.4z"/><path fill="#e2e2e0" d="M206 51h-32.1v.6a1.4 1.4 0 0 0-.2-.6L83.8 160.9s-1.5 1.4 4.5 2.2H169l1.1-.2 35.9-.9a9.5 9.5 0 0 0 9.8-9.3V60.3A9.6 9.6 0 0 0 206 51z" opacity=".5"/><path fill="#746c59" d="M217.6 165.1H38.4V48.7h179.2zm-175.2-4h171.2V52.8H42.4z"/><rect width="188" height="8.15" x="34" y="156.8" fill="#746c59" rx="2.7"/><rect width="64" height="8.15" x="96" y="164.8" fill="#746c59" rx="1.6"/><rect width="188" height="8.15" x="34" y="47.8" fill="#746c59" rx="2.7"/><rect width="73.6" height="8.15" x="57.2" y="183.4" fill="#746c59" rx="2.1" transform="rotate(-45 94.043 187.446)"/><rect width="73.6" height="8.15" x="126.2" y="183.4" fill="#746c59" rx="2.1" transform="rotate(-135 163.004 187.475)"/><path fill="#f9d99d" d="M127 97a31.6 31.6 0 0 0-31-31v31z"/><path fill="#f9d99d" d="M87 106V75h-.5a31.5 31.5 0 1 0 31.5 31.5v-.5z"/><path fill="#e9c47f" d="M199 87l-41-.4a2 2 0 0 1 0-4l41 .4a2 2 0 0 1 0 4zm0 15l-41-.4a2 2 0 0 1 0-4l41 .4a2 2 0 0 1 0 4zm0 15l-41-.4a2 2 0 0 1 0-4l41 .4a2 2 0 0 1 0 4zm0 15l-41-.4a2 2 0 0 1-2-2 1.9 1.9 0 0 1 2-2l41 .4a2 2 0 0 1 0 4z"/><circle cx="146" cy="99" r="4" fill="#e9c47f"/><circle cx="146" cy="114" r="4" fill="#e9c47f"/><circle cx="146" cy="129" r="4" fill="#e9c47f"/><path fill="#f9d99d" d="M146 80a4 4 0 0 0-4 4 4.1 4.1 0 0 0 1.9 3.4l5-6.2A4.3 4.3 0 0 0 146 80z"/><path fill="#e9c47f" d="M150 84a4.1 4.1 0 0 0-1.1-2.8l-5 6.2a3.7 3.7 0 0 0 2.1.6 4 4 0 0 0 4-4z"/></symbol><symbol id="case-study-1-icon" viewBox="0 0 256 256"><path fill="#fff" d="M178 112l7 6 8-6 7 6 8-6 7 6 7-5 7 5 7-6c2.2 0 9 8 7 10.9v92.2a4 4 0 0 1-3.9 3.9h-63.2a4 4 0 0 1-3.9-3.9v-92.2c-2-5.9 6-10.9 6-10.9zM16 59h55v32H16zm66-7h91v41H82z"/><path fill="#fff" d="M98 36h91v41H98zm61 183H72V106l59-1 30 36-2 78zM14 105h45v114H14z"/><path fill="#e2e2e0" d="M151.2 141v78.7h2.7c4.1 0 7.4-4.3 7.4-9.5V141z" opacity=".5"/><path fill="#746c58" d="M151.7 221.6h-72a11.5 11.5 0 0 1-11.5-11.5v-95.8a11.6 11.6 0 0 1 11.5-11.5h49.8a2 2 0 0 1 1.9 1.9v34.4h29.9a1.9 1.9 0 0 1 1.9 1.9v69.2a11.5 11.5 0 0 1-11.5 11.4zm-72-115a7.8 7.8 0 0 0-7.7 7.7v95.8a7.7 7.7 0 0 0 7.7 7.7h72a7.7 7.7 0 0 0 7.7-7.6v-67.3h-29.9a1.9 1.9 0 0 1-1.9-1.9v-34.4z"/><path fill="#fff" stroke="#746c58" stroke-linejoin="round" stroke-width="3.8" d="M161.3 141h-31.8v-36.3l31.8 36.3z"/><path fill="#f9d99d" stroke="#746c59" stroke-linecap="round" stroke-linejoin="round" stroke-width="3.8" d="M161.3 141h-31.8v-36.3l31.8 36.3z"/><path fill="none" stroke="#f9d99d" stroke-linecap="round" stroke-linejoin="round" stroke-width="3.8" d="M85.8 188.7h59.6m-59.6-14.1h59.6m-59.6-14.1h59.6m-59.6 42.2h59.6"/><rect width="16.7" height="16.71" x="85.1" y="119.3" fill="#f9d99d" rx="3.3"/><path fill="#e2e2e0" d="M62.6 59.3v32.5h2.7c4.1 0 7.4-1.8 7.4-4V63.7a4.5 4.5 0 0 0-4.5-4.4z" opacity=".5"/><path fill="#746c59" d="M65.7 93.8H20.9a9.1 9.1 0 0 1-9.1-9.1v-19a9.1 9.1 0 0 1 9.1-9.1h44.8a9.2 9.2 0 0 1 9.2 9.1v19a9.2 9.2 0 0 1-9.2 9.1zM20.9 60.4a5.3 5.3 0 0 0-5.3 5.3v19a5.3 5.3 0 0 0 5.3 5.3h44.8a5.4 5.4 0 0 0 5.4-5.3v-19a5.4 5.4 0 0 0-5.4-5.3z"/><path fill="none" stroke="#f9d99d" stroke-linecap="round" stroke-linejoin="round" stroke-width="1.52" d="M43.3 71h15.2m-15.2 4.5h15.2m-15.2 4.6h15.2"/><rect width="16.7" height="16.71" x="20.5" y="66.8" fill="#f9d99d" rx="3.3"/><path fill="none" d="M58.9 115.7a7.9 7.9 0 0 0-3.2-6.3 7.7 7.7 0 0 0-4.8-1.6 9.1 9.1 0 0 0-2.3.3l-17.4 5.1h20.7a10.7 10.7 0 0 1 7 2.5zM41.7 106H21.2a7.1 7.1 0 0 0-7.1 7.1v2.2a12.5 12.5 0 0 1 4.8-2.6zM14.2 208.7a7.9 7.9 0 0 0 3.2 6.3 8.1 8.1 0 0 0 7.1 1.3l17.2-5H21.2a10.8 10.8 0 0 1-7-2.6z"/><path fill="#746c59" d="M51.9 102.1H21.2a11 11 0 0 0-11 11v11.1a12.1 12.1 0 0 1 3.9-8.9v-2.2a7.1 7.1 0 0 1 7.1-7.1h20.5l5.8-1.7a11.9 11.9 0 0 1 10.5 2 11.7 11.7 0 0 1 4.8 9.6v-2.8a10.9 10.9 0 0 0-10.9-11z"/><path fill="#746c59" d="M21.2 113.2h10l17.4-5.1a9.1 9.1 0 0 1 2.3-.3 7.7 7.7 0 0 1 4.8 1.6 7.9 7.9 0 0 1 3.2 6.3v-2.6a7 7 0 0 0-7-7.1H41.7l-22.8 6.7a12.5 12.5 0 0 0-4.8 2.6v.4a11 11 0 0 1 7.1-2.5z"/><path fill="#746c59" d="M58 106.3a11.9 11.9 0 0 0-10.5-2l-5.8 1.7h10.2a7 7 0 0 1 7 7.1v2.6a10.8 10.8 0 0 1 3.9 8.3v-8.1a11.7 11.7 0 0 0-4.8-9.6zm4.8 94.5v-.5zm-3.9-.5v.1z"/><path fill="#746c59" d="M62.8 124a10.8 10.8 0 0 0-3.9-8.3 10.7 10.7 0 0 0-7-2.5H21.2a11 11 0 0 0-7.1 2.5v-.4a12.1 12.1 0 0 0-3.9 8.9v84.3c0 .4.1.8.1 1.3v.8a10.8 10.8 0 0 0 10.9 10.8h30.7a10.8 10.8 0 0 0 10.9-10.8V124zM59 210.6a7 7 0 0 1-7.1 7H21.2a7 7 0 0 1-7.1-7v-2h.1v-84.4a8.3 8.3 0 0 1 1-3.8 7.1 7.1 0 0 1 6.1-3.4h30.6a7 7 0 0 1 7 6.1 2.8 2.8 0 0 1 .1.9v86.6z"/><rect width="16.7" height="16.71" x="20.5" y="123.1" fill="#f9d99d" rx="3.3"/><rect width="28.9" height="41.02" x="21.3" y="148.1" fill="#e2e2e0" opacity=".5" rx="4.5"/><path fill="none" stroke="#f9d99d" stroke-linecap="round" stroke-linejoin="round" stroke-width="1.92" d="M23.6 197.6h24.3m-24.3 4.5h24.3"/><path fill="#e2e2e0" d="M233.3 117.4v101.4h2.7c4 0 7.3-5.6 7.3-12.4v-89l-7-5z" opacity=".5"/><path fill="#746c59" d="M233.7 222.2h-52.5a12.1 12.1 0 0 1-12.1-12.1v-91.6a2 2 0 0 1 .6-1.5l7.3-6a2 2 0 0 1 2.5 0l6.1 5 6-5a2 2 0 0 1 2.5 0l6 5 6.1-5a1.8 1.8 0 0 1 2.4 0l6.1 5 6.1-5a1.8 1.8 0 0 1 2.4 0l6.1 5 6.1-5a1.8 1.8 0 0 1 2.4 0l7.3 6a2.1 2.1 0 0 1 .7 1.5v91.6a12.1 12.1 0 0 1-12.1 12.1zm-60.8-102.8v90.7a8.3 8.3 0 0 0 8.3 8.3h52.5a8.3 8.3 0 0 0 8.3-8.3v-90.7l-5.4-4.5-6.1 5.1a1.8 1.8 0 0 1-2.4 0l-6.1-5.1-6.1 5.1a2 2 0 0 1-2.4 0l-6.1-5.1-6 5.1a2 2 0 0 1-2.5 0l-6-5.1-6.1 5.1a2.1 2.1 0 0 1-2.5 0l-6-5.1z"/><path fill="#746c59" d="M228.7 132.2a4.7 4.7 0 0 1-4.6-4.6V99.4a6.7 6.7 0 0 0-6.7-6.7H199a6.7 6.7 0 0 0-6.8 6.7v28.2a4.6 4.6 0 1 1-9.1 0V99.4A15.9 15.9 0 0 1 199 83.6h18.4a15.8 15.8 0 0 1 15.8 15.8v28.2a4.6 4.6 0 0 1-4.5 4.6z"/><rect width="38" height="37.98" x="189.2" y="147.4" fill="#f9d99d" rx="7.5"/><path fill="#e2e2e0" d="M178.9 35.9v41h2.7c4.1 0 7.4-2.2 7.4-5V41.6c0-3.2-2-5.7-4.5-5.7zm-16.7 16.3v41.6h2.7c4.1 0 7.4-2.3 7.4-5.1V58c0-3.2-2-5.8-4.5-5.8z" opacity=".5"/><path fill="none" d="M130.8 78.6l-3.8 2.1h-1.8l-3.6-2h-13.5l-25.5 10a4.1 4.1 0 0 0 3.9 2.9h80.8a4.1 4.1 0 0 0 3.9-2.9l-25.5-10zm40.5 6v-6h-15.2l15.2 6zM95.4 54.3h-8.8l8.8 5v-5z"/><path fill="#746c59" d="M126.3 76.7h-.3l.1.1.2-.1zM184 33.8h-80.8a7.8 7.8 0 0 0-7.8 7.9v8.8h1.9v-8.8a5.9 5.9 0 0 1 5.9-6H184a5.9 5.9 0 0 1 5.9 6v29a5.9 5.9 0 0 1-5.9 6h-8.9v1.9h8.9a7.8 7.8 0 0 0 7.8-7.9v-29a7.8 7.8 0 0 0-7.8-7.9z"/><path fill="#746c59" d="M99.2 41.7a4 4 0 0 1 4-4.1H184a4 4 0 0 1 4 4.1v29a4 4 0 0 1-4 4.1h-8.9v1.9h8.9a5.9 5.9 0 0 0 5.9-6v-29a5.9 5.9 0 0 0-5.9-6h-80.8a5.9 5.9 0 0 0-5.9 6v8.8h1.9zm74 43.6l.7.3a1.8 1.8 0 0 1 1.2 1.7v-8.7h-1.9z"/><path fill="#746c59" d="M173.6 53.8a1.8 1.8 0 0 1-1 1.8h-.1a5.5 5.5 0 0 1 .7 2.8v16.4h1.9V58.4a7.5 7.5 0 0 0-1.5-4.6zm-.4 22.9h1.9v1.9h-1.9zm0-1.9h1.9v1.9h-1.9zM79.9 85.6l.7-.3V58.4a6.7 6.7 0 0 1 .6-2.8h-.1a1.9 1.9 0 0 1-.9-1.8 7.5 7.5 0 0 0-1.5 4.6v28.9a1.8 1.8 0 0 1 1.2-1.7z"/><path fill="#746c59" d="M173.2 89.3h-.3a5.9 5.9 0 0 1-5.6 4.2H86.5a6 6 0 0 1-5.7-4.2h-.2a2 2 0 0 1-1.8-1.2 1.1 1.1 0 0 1-.1-.8v.2a7.8 7.8 0 0 0 7.8 7.8h80.8a7.8 7.8 0 0 0 7.8-7.8v-.2a2.2 2.2 0 0 1-.1.8 2 2 0 0 1-1.8 1.2zm-1.9-4.7l1.9.7v-6.7h-1.9v6zm1.2-29l-1.6 1a3.4 3.4 0 0 1 .4 1.8v16.4h1.9V58.4a5.5 5.5 0 0 0-.7-2.8z"/><path fill="#746c59" d="M171.3 76.7h1.9v1.9h-1.9zm0-1.9h1.9v1.9h-1.9zM81.1 55.6h.1a6.9 6.9 0 0 1 2.9-2.7l-1.1-.6a1.5 1.5 0 0 0-1.1-.2 6.9 6.9 0 0 0-1.7 1.7 1.9 1.9 0 0 0 .9 1.8zm91.4 0h.1a1.8 1.8 0 0 0 1-1.8 6.9 6.9 0 0 0-1.7-1.7 1.5 1.5 0 0 0-1.1.2l-1.2.6a5.9 5.9 0 0 1 2.9 2.7zm-1.6 1l1.6-1a5.9 5.9 0 0 0-2.9-2.7l-2.5 1.4h.2a4.1 4.1 0 0 1 3.6 2.3z"/><path fill="#746c59" d="M86.5 54.3h.1l-2.5-1.4a6.9 6.9 0 0 0-2.9 2.7l1.7 1a4 4 0 0 1 3.6-2.3zm84.7 34.3a4.1 4.1 0 0 1-3.9 2.9H86.5a4.1 4.1 0 0 1-3.9-2.9l-1.4.5h-.4a6 6 0 0 0 5.7 4.2h80.8a5.9 5.9 0 0 0 5.6-4.2h-.4z"/><path fill="#746c59" d="M82.5 58.4a3.4 3.4 0 0 1 .4-1.8l-1.7-1a6.7 6.7 0 0 0-.6 2.8v26.9l1.9-.7zm.4-1.8l12.5 7.1v-4.4l-8.8-5h-.1a4 4 0 0 0-3.6 2.3zm42.3 24h1.8l3.8-2.1h-9.2zm-13.3-7.5l2.9-1.2a1.9 1.9 0 0 1 2.5 1.1 1.9 1.9 0 0 1-.3 1.8h5.6L99.2 61.5v4.3zm24.6-.1a1.9 1.9 0 0 1 2.5-1.1l2.3.9 29.6-16.2a4.1 4.1 0 0 0-3.6-2.3h-.2l-37.3 20.5h7a1.9 1.9 0 0 1-.3-1.8z"/><path fill="#746c59" d="M97.3 60.4l-1.9-1.1v4.4l1.9 1.1v-4.4zm29 16.3l-.2.1-.1-.1h-7.7l3.3 1.9h9.2l3.4-1.9h-7.9zm-10.1-1.2h-.1l2.2 1.2h7.7l-3.4-1.9H117a2.7 2.7 0 0 1-.8.7zm-17-9.7v-4.3l-1.9-1.1v4.4l1.9 1z"/><path fill="#746c59" d="M134.2 76.7l2.9-1.6-.3-.3h-7l-3.5 1.9zm-31 1.9a7.7 7.7 0 0 1-3.4-.8l-17.3 6.8v2.9a4.1 4.1 0 0 0 .1 1.1l25.5-10zm11.8-3.8l-3.1-1.7-4.5 1.7h7.6z"/><path fill="#746c59" d="M103.2 76.7h-.6l-2.8 1.1a7.7 7.7 0 0 0 3.4.8h4.9l4.8-1.9z"/><path fill="#746c59" d="M112.9 76.7l3.2-1.2-1.2-.7h-7.5l-4.8 1.9h10.3zM80.6 89.3h.2a9.9 9.9 0 0 1-.2-1.7v-2.3l-.7.3a1.8 1.8 0 0 0-1.2 1.7 1.1 1.1 0 0 0 .1.8 2 2 0 0 0 1.8 1.2z"/><path fill="#746c59" d="M82.6 88.6a4.1 4.1 0 0 1-.1-1.1v-2.9l-1.9.7v2.2a9.9 9.9 0 0 0 .2 1.7h.4zM117 74.8a1.9 1.9 0 0 0 .3-1.8 1.9 1.9 0 0 0-2.5-1.1l-2.9 1.2 3 1.7z"/><path fill="#746c59" d="M116.1 75.5h.1a2.7 2.7 0 0 0 .8-.7h-2.1zM83 52.3l1.1.6 2.5 1.4h8.8v-3.8h-8.9a7.6 7.6 0 0 0-4.6 1.6 1.5 1.5 0 0 1 1.1.2zm86.6.6l1.2-.6a1.5 1.5 0 0 1 1.1-.2 7.6 7.6 0 0 0-4.6-1.6H99.2v3.8h67.9zm-74.2-2.4h1.9v3.8h-1.9zm1.9 0h1.9v3.8h-1.9zm48.4 28.1l25.5 10a4.1 4.1 0 0 0 .1-1.1v-2.9l-15.2-6zm.7-3.8l-5.1-2-3.6 2h8.7zm-.7 3.8h10.4l-4.8-1.9h-10.5l4.9 1.9z"/><path fill="#746c59" d="M137.1 75.1l.5.4 3.2 1.2h10.5l-4.9-1.9h-8.7zm36.8 10.5l-.7-.3v2.2a5.1 5.1 0 0 1-.3 1.7h.3A2 2 0 0 0 175 88a2.2 2.2 0 0 0 .1-.8 1.8 1.8 0 0 0-1.2-1.6z"/><path fill="#746c59" d="M171.3 87.5a4.1 4.1 0 0 1-.1 1.1l1.3.5h.4a5.1 5.1 0 0 0 .3-1.7v-2.1l-1.9-.7zM136.5 73a1.9 1.9 0 0 0 .3 1.8h.9l3.6-2-2.3-.9a1.9 1.9 0 0 0-2.5 1.1zm.3 1.8l.3.3.6-.3z"/><rect width="7.6" height="7.6" x="104.1" y="41" fill="#f9d99d" rx="1.5"/><path fill="none" stroke="#f9d99d" stroke-linecap="round" stroke-linejoin="round" stroke-width="1.52" d="M113.9 43.5h15.2m-15.2 3h10.7"/></symbol><symbol id="case-study-2-icon" viewBox="0 0 256 256"><path fill="#fff" d="M115 166.2h41.9v41.87H115z"/><path fill="#e2e2e0" d="M147.2 166.2v41.5h2.7c4 0 7.3-2.3 7.3-5v-30.8c0-3.2-2-5.7-4.4-5.7z" opacity=".5"/><rect width="183.7" height="117.55" x="44.1" y="47.3" fill="#fff" rx="11.8"/><path fill="#e2e2e0" d="M218 47h-32.2v.6a1.4 1.4 0 0 1-.2-.6L95.8 162.6s-1.6 1.5 4.4 2.3H181l1-.2 36-.9a9.8 9.8 0 0 0 9.8-9.8V56.8A9.8 9.8 0 0 0 218 47z" opacity=".5"/><path fill="#fff" d="M43.5 138.3h183.7v15.2a10.9 10.9 0 0 1-10.9 10.9H55.6a12.1 12.1 0 0 1-12.1-12.1v-14z"/><path fill="#fff" stroke="#746c59" stroke-miterlimit="10" stroke-width="3.81" d="M227.8 138.6H44.1"/><path fill="#746c59" d="M158.8 210h-45.7v-45.7h45.7zm-41.9-3.8H155v-38.1h-38.1z"/><rect width="100.9" height="9.07" x="85.5" y="207.4" fill="#746c59" rx="2.1"/><rect width="54.6" height="29.67" x="76.8" y="64.9" fill="#f9d99d" rx="2"/><path fill="#f9d99d" d="M78.1 108.8a2.1 2.1 0 0 0-2.1 2.1 2.1 2.1 0 0 0 2.1 2.2h56.1l3.4-4.3zm0 15.8a2.1 2.1 0 0 0-2.1 2.2 2.1 2.1 0 0 0 2.1 2.1h43.8l3.3-4.3zm0-7.9a2.1 2.1 0 0 0-2.1 2.1 2.1 2.1 0 0 0 2.1 2.2h50l3.3-4.3z"/><path fill="#e9c47f" d="M198.2 110.9a2.1 2.1 0 0 0-2.2-2.1h-58.4l-3.4 4.3H196a2.2 2.2 0 0 0 2.2-2.2zm-12.5 15.9a2.2 2.2 0 0 0-2.1-2.2h-58.4l-3.3 4.3h61.7a2.1 2.1 0 0 0 2.1-2.1zm11.3-8a2.1 2.1 0 0 0-2.1-2.1h-63.5l-3.3 4.3h66.8a2.1 2.1 0 0 0 2.1-2.2z"/><path fill="#f9d99d" d="M143.4 64.9a2 2 0 0 0-2 2v25.6a2 2 0 0 0 2 2.1h5.2l23-29.7z"/><path fill="#e9c47f" d="M196 92.5V66.9a2 2 0 0 0-2-2h-22.4l-23 29.7H194a2 2 0 0 0 2-2.1z"/><path fill="#746c59" d="M215.9 166.7h-160A13.7 13.7 0 0 1 42.2 153V59.1a13.7 13.7 0 0 1 13.7-13.7h160a13.7 13.7 0 0 1 13.8 13.7V153a13.7 13.7 0 0 1-13.8 13.7zM55.9 49.2a9.9 9.9 0 0 0-9.9 9.9V153a9.9 9.9 0 0 0 9.9 9.9h160a9.9 9.9 0 0 0 10-9.9V59.1a9.9 9.9 0 0 0-10-9.9z"/><rect width="82.8" height="111.11" x="9.5" y="92.9" fill="#fff" stroke="#746c59" stroke-miterlimit="10" stroke-width="3.81" rx="9.5"/><path fill="#e2e2e0" d="M85 103.7L18 191s-1.1 1.1 3.3 1.7h60.3c2.5 0 4.5-4.1 4.5-9.2v-73.8a15.3 15.3 0 0 0-1.1-6z" opacity=".5"/><circle cx="50.9" cy="197.8" r="2.3" fill="#746c59"/><circle cx="50.9" cy="98" r="1.1" fill="#746c59"/><rect width="69.2" height="89.57" x="16.3" y="103.1" fill="none" stroke="#746c59" stroke-miterlimit="10" stroke-width="3.75" rx="3"/><rect width="25.4" height="29.67" x="23.7" y="117.2" fill="#f9d99d" rx="1.4"/><path fill="#f9d99d" d="M55.2 117.2a1.4 1.4 0 0 0-1.4 1.4v25.8l20.8-27.2zm-30.9 40.5a2.1 2.1 0 0 0-2.1 2.1 2.1 2.1 0 0 0 2.1 2.2h16l3.3-4.3zm0 19.2a2.1 2.1 0 0 0-2.1 2.2 2.1 2.1 0 0 0 2.1 2.1h1.2l3.3-4.3zm0-10.2a2.1 2.1 0 0 0-2.1 2.2 2.1 2.1 0 0 0 2.1 2.1h9l3.3-4.3z"/><path fill="#e9c47f" d="M55.2 146.9h22.7a1.4 1.4 0 0 0 1.3-1.4v-26.9a1.3 1.3 0 0 0-1.3-1.4h-3.3l-20.8 27.2v1.1a1.4 1.4 0 0 0 1.4 1.4zm26.2 12.9a2.1 2.1 0 0 0-2.2-2.1H43.6l-3.3 4.3h38.9a2.2 2.2 0 0 0 2.2-2.2zm-5.8 19.3a2.2 2.2 0 0 0-2.2-2.2H28.8l-3.3 4.3h47.9a2.1 2.1 0 0 0 2.2-2.1zm5.3-10.2a2.2 2.2 0 0 0-2.2-2.2H36.6l-3.3 4.3h45.4a2.1 2.1 0 0 0 2.2-2.1z"/><rect width="55" height="89.64" x="191.5" y="124.7" fill="#fff" stroke="#746c59" stroke-miterlimit="10" stroke-width="4.04" rx="6.9"/><path fill="#e2e2e0" d="M240.2 135.2L198.5 202s-.7.9 2.1 1.3h37.5c1.5 0 2.8-3.1 2.8-7.1v-56.4a15.9 15.9 0 0 0-.7-4.6z" opacity=".5"/><ellipse cx="219.3" cy="208.4" fill="#746c59" rx="1.7" ry="1.8"/><ellipse cx="219.1" cy="129.6" fill="#746c59" rx=".8" ry="1"/><rect width="43.1" height="68.49" x="197.4" y="134.8" fill="none" stroke="#746c59" stroke-miterlimit="10" stroke-width="3.75" rx="2.1"/><path fill="#f9d99d" d="M234.5 143.2h-29.7a1.3 1.3 0 0 0-1.2 1.2v15.1a1.2 1.2 0 0 0 1.2 1.1h19.5l10.8-17.2zm-29.7 22.7a1.2 1.2 0 0 0-1.2 1.2v15a1.2 1.2 0 0 0 1.2 1.2h5.4l10.9-17.4zm1.2 21.8a2.2 2.2 0 0 0-2.2 2.2 2.1 2.1 0 0 0 1.1 1.8l2.5-4z"/><path fill="#e9c47f" d="M235.7 159.5v-15.1a1.1 1.1 0 0 0-.6-1l-10.8 17.2h10.2a1.1 1.1 0 0 0 1.2-1.1zm0 22.6v-15a1.2 1.2 0 0 0-1.2-1.2h-13.4l-10.9 17.4h24.3a1.2 1.2 0 0 0 1.2-1.2zm-2.3 9.9a2.2 2.2 0 1 0 0-4.3h-26l-2.5 4a2 2 0 0 0 1.1.3zm-2.9 2.9H206a2.1 2.1 0 0 0-2.2 2.1 2.2 2.2 0 0 0 2.2 2.2h24.5a2.2 2.2 0 0 0 2.2-2.2 2.1 2.1 0 0 0-2.2-2.1z"/></symbol></svg>