<svg xmlns="http://www.w3.org/2000/svg"><symbol id="case-study-1-icon" viewBox="0 0 256 256"><path fill="#fff" d="M178 112l7 6 8-6 7 6 8-6 7 6 7-5 7 5 7-6c2.2 0 9 8 7 10.9v92.2a4 4 0 0 1-3.9 3.9h-63.2a4 4 0 0 1-3.9-3.9v-92.2c-2-5.9 6-10.9 6-10.9zM16 59h55v32H16zm66-7h91v41H82z"/><path fill="#fff" d="M98 36h91v41H98zm61 183H72V106l59-1 30 36-2 78zM14 105h45v114H14z"/><path fill="#e2e2e0" d="M151.2 141v78.7h2.7c4.1 0 7.4-4.3 7.4-9.5V141z" opacity=".5"/><path fill="#746c58" d="M151.7 221.6h-72a11.5 11.5 0 0 1-11.5-11.5v-95.8a11.6 11.6 0 0 1 11.5-11.5h49.8a2 2 0 0 1 1.9 1.9v34.4h29.9a1.9 1.9 0 0 1 1.9 1.9v69.2a11.5 11.5 0 0 1-11.5 11.4zm-72-115a7.8 7.8 0 0 0-7.7 7.7v95.8a7.7 7.7 0 0 0 7.7 7.7h72a7.7 7.7 0 0 0 7.7-7.6v-67.3h-29.9a1.9 1.9 0 0 1-1.9-1.9v-34.4z"/><path fill="#fff" stroke="#746c58" stroke-linejoin="round" stroke-width="3.8" d="M161.3 141h-31.8v-36.3l31.8 36.3z"/><path fill="#f9d99d" stroke="#746c59" stroke-linecap="round" stroke-linejoin="round" stroke-width="3.8" d="M161.3 141h-31.8v-36.3l31.8 36.3z"/><path fill="none" stroke="#f9d99d" stroke-linecap="round" stroke-linejoin="round" stroke-width="3.8" d="M85.8 188.7h59.6m-59.6-14.1h59.6m-59.6-14.1h59.6m-59.6 42.2h59.6"/><rect width="16.7" height="16.71" x="85.1" y="119.3" fill="#f9d99d" rx="3.3"/><path fill="#e2e2e0" d="M62.6 59.3v32.5h2.7c4.1 0 7.4-1.8 7.4-4V63.7a4.5 4.5 0 0 0-4.5-4.4z" opacity=".5"/><path fill="#746c59" d="M65.7 93.8H20.9a9.1 9.1 0 0 1-9.1-9.1v-19a9.1 9.1 0 0 1 9.1-9.1h44.8a9.2 9.2 0 0 1 9.2 9.1v19a9.2 9.2 0 0 1-9.2 9.1zM20.9 60.4a5.3 5.3 0 0 0-5.3 5.3v19a5.3 5.3 0 0 0 5.3 5.3h44.8a5.4 5.4 0 0 0 5.4-5.3v-19a5.4 5.4 0 0 0-5.4-5.3z"/><path fill="none" stroke="#f9d99d" stroke-linecap="round" stroke-linejoin="round" stroke-width="1.52" d="M43.3 71h15.2m-15.2 4.5h15.2m-15.2 4.6h15.2"/><rect width="16.7" height="16.71" x="20.5" y="66.8" fill="#f9d99d" rx="3.3"/><path fill="none" d="M58.9 115.7a7.9 7.9 0 0 0-3.2-6.3 7.7 7.7 0 0 0-4.8-1.6 9.1 9.1 0 0 0-2.3.3l-17.4 5.1h20.7a10.7 10.7 0 0 1 7 2.5zM41.7 106H21.2a7.1 7.1 0 0 0-7.1 7.1v2.2a12.5 12.5 0 0 1 4.8-2.6zM14.2 208.7a7.9 7.9 0 0 0 3.2 6.3 8.1 8.1 0 0 0 7.1 1.3l17.2-5H21.2a10.8 10.8 0 0 1-7-2.6z"/><path fill="#746c59" d="M51.9 102.1H21.2a11 11 0 0 0-11 11v11.1a12.1 12.1 0 0 1 3.9-8.9v-2.2a7.1 7.1 0 0 1 7.1-7.1h20.5l5.8-1.7a11.9 11.9 0 0 1 10.5 2 11.7 11.7 0 0 1 4.8 9.6v-2.8a10.9 10.9 0 0 0-10.9-11z"/><path fill="#746c59" d="M21.2 113.2h10l17.4-5.1a9.1 9.1 0 0 1 2.3-.3 7.7 7.7 0 0 1 4.8 1.6 7.9 7.9 0 0 1 3.2 6.3v-2.6a7 7 0 0 0-7-7.1H41.7l-22.8 6.7a12.5 12.5 0 0 0-4.8 2.6v.4a11 11 0 0 1 7.1-2.5z"/><path fill="#746c59" d="M58 106.3a11.9 11.9 0 0 0-10.5-2l-5.8 1.7h10.2a7 7 0 0 1 7 7.1v2.6a10.8 10.8 0 0 1 3.9 8.3v-8.1a11.7 11.7 0 0 0-4.8-9.6zm4.8 94.5v-.5zm-3.9-.5v.1z"/><path fill="#746c59" d="M62.8 124a10.8 10.8 0 0 0-3.9-8.3 10.7 10.7 0 0 0-7-2.5H21.2a11 11 0 0 0-7.1 2.5v-.4a12.1 12.1 0 0 0-3.9 8.9v84.3c0 .4.1.8.1 1.3v.8a10.8 10.8 0 0 0 10.9 10.8h30.7a10.8 10.8 0 0 0 10.9-10.8V124zM59 210.6a7 7 0 0 1-7.1 7H21.2a7 7 0 0 1-7.1-7v-2h.1v-84.4a8.3 8.3 0 0 1 1-3.8 7.1 7.1 0 0 1 6.1-3.4h30.6a7 7 0 0 1 7 6.1 2.8 2.8 0 0 1 .1.9v86.6z"/><rect width="16.7" height="16.71" x="20.5" y="123.1" fill="#f9d99d" rx="3.3"/><rect width="28.9" height="41.02" x="21.3" y="148.1" fill="#e2e2e0" opacity=".5" rx="4.5"/><path fill="none" stroke="#f9d99d" stroke-linecap="round" stroke-linejoin="round" stroke-width="1.92" d="M23.6 197.6h24.3m-24.3 4.5h24.3"/><path fill="#e2e2e0" d="M233.3 117.4v101.4h2.7c4 0 7.3-5.6 7.3-12.4v-89l-7-5z" opacity=".5"/><path fill="#746c59" d="M233.7 222.2h-52.5a12.1 12.1 0 0 1-12.1-12.1v-91.6a2 2 0 0 1 .6-1.5l7.3-6a2 2 0 0 1 2.5 0l6.1 5 6-5a2 2 0 0 1 2.5 0l6 5 6.1-5a1.8 1.8 0 0 1 2.4 0l6.1 5 6.1-5a1.8 1.8 0 0 1 2.4 0l6.1 5 6.1-5a1.8 1.8 0 0 1 2.4 0l7.3 6a2.1 2.1 0 0 1 .7 1.5v91.6a12.1 12.1 0 0 1-12.1 12.1zm-60.8-102.8v90.7a8.3 8.3 0 0 0 8.3 8.3h52.5a8.3 8.3 0 0 0 8.3-8.3v-90.7l-5.4-4.5-6.1 5.1a1.8 1.8 0 0 1-2.4 0l-6.1-5.1-6.1 5.1a2 2 0 0 1-2.4 0l-6.1-5.1-6 5.1a2 2 0 0 1-2.5 0l-6-5.1-6.1 5.1a2.1 2.1 0 0 1-2.5 0l-6-5.1z"/><path fill="#746c59" d="M228.7 132.2a4.7 4.7 0 0 1-4.6-4.6V99.4a6.7 6.7 0 0 0-6.7-6.7H199a6.7 6.7 0 0 0-6.8 6.7v28.2a4.6 4.6 0 1 1-9.1 0V99.4A15.9 15.9 0 0 1 199 83.6h18.4a15.8 15.8 0 0 1 15.8 15.8v28.2a4.6 4.6 0 0 1-4.5 4.6z"/><rect width="38" height="37.98" x="189.2" y="147.4" fill="#f9d99d" rx="7.5"/><path fill="#e2e2e0" d="M178.9 35.9v41h2.7c4.1 0 7.4-2.2 7.4-5V41.6c0-3.2-2-5.7-4.5-5.7zm-16.7 16.3v41.6h2.7c4.1 0 7.4-2.3 7.4-5.1V58c0-3.2-2-5.8-4.5-5.8z" opacity=".5"/><path fill="none" d="M130.8 78.6l-3.8 2.1h-1.8l-3.6-2h-13.5l-25.5 10a4.1 4.1 0 0 0 3.9 2.9h80.8a4.1 4.1 0 0 0 3.9-2.9l-25.5-10zm40.5 6v-6h-15.2l15.2 6zM95.4 54.3h-8.8l8.8 5v-5z"/><path fill="#746c59" d="M126.3 76.7h-.3l.1.1.2-.1zM184 33.8h-80.8a7.8 7.8 0 0 0-7.8 7.9v8.8h1.9v-8.8a5.9 5.9 0 0 1 5.9-6H184a5.9 5.9 0 0 1 5.9 6v29a5.9 5.9 0 0 1-5.9 6h-8.9v1.9h8.9a7.8 7.8 0 0 0 7.8-7.9v-29a7.8 7.8 0 0 0-7.8-7.9z"/><path fill="#746c59" d="M99.2 41.7a4 4 0 0 1 4-4.1H184a4 4 0 0 1 4 4.1v29a4 4 0 0 1-4 4.1h-8.9v1.9h8.9a5.9 5.9 0 0 0 5.9-6v-29a5.9 5.9 0 0 0-5.9-6h-80.8a5.9 5.9 0 0 0-5.9 6v8.8h1.9zm74 43.6l.7.3a1.8 1.8 0 0 1 1.2 1.7v-8.7h-1.9z"/><path fill="#746c59" d="M173.6 53.8a1.8 1.8 0 0 1-1 1.8h-.1a5.5 5.5 0 0 1 .7 2.8v16.4h1.9V58.4a7.5 7.5 0 0 0-1.5-4.6zm-.4 22.9h1.9v1.9h-1.9zm0-1.9h1.9v1.9h-1.9zM79.9 85.6l.7-.3V58.4a6.7 6.7 0 0 1 .6-2.8h-.1a1.9 1.9 0 0 1-.9-1.8 7.5 7.5 0 0 0-1.5 4.6v28.9a1.8 1.8 0 0 1 1.2-1.7z"/><path fill="#746c59" d="M173.2 89.3h-.3a5.9 5.9 0 0 1-5.6 4.2H86.5a6 6 0 0 1-5.7-4.2h-.2a2 2 0 0 1-1.8-1.2 1.1 1.1 0 0 1-.1-.8v.2a7.8 7.8 0 0 0 7.8 7.8h80.8a7.8 7.8 0 0 0 7.8-7.8v-.2a2.2 2.2 0 0 1-.1.8 2 2 0 0 1-1.8 1.2zm-1.9-4.7l1.9.7v-6.7h-1.9v6zm1.2-29l-1.6 1a3.4 3.4 0 0 1 .4 1.8v16.4h1.9V58.4a5.5 5.5 0 0 0-.7-2.8z"/><path fill="#746c59" d="M171.3 76.7h1.9v1.9h-1.9zm0-1.9h1.9v1.9h-1.9zM81.1 55.6h.1a6.9 6.9 0 0 1 2.9-2.7l-1.1-.6a1.5 1.5 0 0 0-1.1-.2 6.9 6.9 0 0 0-1.7 1.7 1.9 1.9 0 0 0 .9 1.8zm91.4 0h.1a1.8 1.8 0 0 0 1-1.8 6.9 6.9 0 0 0-1.7-1.7 1.5 1.5 0 0 0-1.1.2l-1.2.6a5.9 5.9 0 0 1 2.9 2.7zm-1.6 1l1.6-1a5.9 5.9 0 0 0-2.9-2.7l-2.5 1.4h.2a4.1 4.1 0 0 1 3.6 2.3z"/><path fill="#746c59" d="M86.5 54.3h.1l-2.5-1.4a6.9 6.9 0 0 0-2.9 2.7l1.7 1a4 4 0 0 1 3.6-2.3zm84.7 34.3a4.1 4.1 0 0 1-3.9 2.9H86.5a4.1 4.1 0 0 1-3.9-2.9l-1.4.5h-.4a6 6 0 0 0 5.7 4.2h80.8a5.9 5.9 0 0 0 5.6-4.2h-.4z"/><path fill="#746c59" d="M82.5 58.4a3.4 3.4 0 0 1 .4-1.8l-1.7-1a6.7 6.7 0 0 0-.6 2.8v26.9l1.9-.7zm.4-1.8l12.5 7.1v-4.4l-8.8-5h-.1a4 4 0 0 0-3.6 2.3zm42.3 24h1.8l3.8-2.1h-9.2zm-13.3-7.5l2.9-1.2a1.9 1.9 0 0 1 2.5 1.1 1.9 1.9 0 0 1-.3 1.8h5.6L99.2 61.5v4.3zm24.6-.1a1.9 1.9 0 0 1 2.5-1.1l2.3.9 29.6-16.2a4.1 4.1 0 0 0-3.6-2.3h-.2l-37.3 20.5h7a1.9 1.9 0 0 1-.3-1.8z"/><path fill="#746c59" d="M97.3 60.4l-1.9-1.1v4.4l1.9 1.1v-4.4zm29 16.3l-.2.1-.1-.1h-7.7l3.3 1.9h9.2l3.4-1.9h-7.9zm-10.1-1.2h-.1l2.2 1.2h7.7l-3.4-1.9H117a2.7 2.7 0 0 1-.8.7zm-17-9.7v-4.3l-1.9-1.1v4.4l1.9 1z"/><path fill="#746c59" d="M134.2 76.7l2.9-1.6-.3-.3h-7l-3.5 1.9zm-31 1.9a7.7 7.7 0 0 1-3.4-.8l-17.3 6.8v2.9a4.1 4.1 0 0 0 .1 1.1l25.5-10zm11.8-3.8l-3.1-1.7-4.5 1.7h7.6z"/><path fill="#746c59" d="M103.2 76.7h-.6l-2.8 1.1a7.7 7.7 0 0 0 3.4.8h4.9l4.8-1.9z"/><path fill="#746c59" d="M112.9 76.7l3.2-1.2-1.2-.7h-7.5l-4.8 1.9h10.3zM80.6 89.3h.2a9.9 9.9 0 0 1-.2-1.7v-2.3l-.7.3a1.8 1.8 0 0 0-1.2 1.7 1.1 1.1 0 0 0 .1.8 2 2 0 0 0 1.8 1.2z"/><path fill="#746c59" d="M82.6 88.6a4.1 4.1 0 0 1-.1-1.1v-2.9l-1.9.7v2.2a9.9 9.9 0 0 0 .2 1.7h.4zM117 74.8a1.9 1.9 0 0 0 .3-1.8 1.9 1.9 0 0 0-2.5-1.1l-2.9 1.2 3 1.7z"/><path fill="#746c59" d="M116.1 75.5h.1a2.7 2.7 0 0 0 .8-.7h-2.1zM83 52.3l1.1.6 2.5 1.4h8.8v-3.8h-8.9a7.6 7.6 0 0 0-4.6 1.6 1.5 1.5 0 0 1 1.1.2zm86.6.6l1.2-.6a1.5 1.5 0 0 1 1.1-.2 7.6 7.6 0 0 0-4.6-1.6H99.2v3.8h67.9zm-74.2-2.4h1.9v3.8h-1.9zm1.9 0h1.9v3.8h-1.9zm48.4 28.1l25.5 10a4.1 4.1 0 0 0 .1-1.1v-2.9l-15.2-6zm.7-3.8l-5.1-2-3.6 2h8.7zm-.7 3.8h10.4l-4.8-1.9h-10.5l4.9 1.9z"/><path fill="#746c59" d="M137.1 75.1l.5.4 3.2 1.2h10.5l-4.9-1.9h-8.7zm36.8 10.5l-.7-.3v2.2a5.1 5.1 0 0 1-.3 1.7h.3A2 2 0 0 0 175 88a2.2 2.2 0 0 0 .1-.8 1.8 1.8 0 0 0-1.2-1.6z"/><path fill="#746c59" d="M171.3 87.5a4.1 4.1 0 0 1-.1 1.1l1.3.5h.4a5.1 5.1 0 0 0 .3-1.7v-2.1l-1.9-.7zM136.5 73a1.9 1.9 0 0 0 .3 1.8h.9l3.6-2-2.3-.9a1.9 1.9 0 0 0-2.5 1.1zm.3 1.8l.3.3.6-.3z"/><rect width="7.6" height="7.6" x="104.1" y="41" fill="#f9d99d" rx="1.5"/><path fill="none" stroke="#f9d99d" stroke-linecap="round" stroke-linejoin="round" stroke-width="1.52" d="M113.9 43.5h15.2m-15.2 3h10.7"/></symbol><symbol id="case-study-3-icon" viewBox="0 0 256 256"><path fill="#fff" d="M40.4 50.8h175.2v112.33H40.4z"/><path fill="#e2e2e0" d="M206 51h-32.1v.6a1.4 1.4 0 0 0-.2-.6L83.8 160.9s-1.5 1.4 4.5 2.2H169l1.1-.2 35.9-.9a9.5 9.5 0 0 0 9.8-9.3V60.3A9.6 9.6 0 0 0 206 51z" opacity=".5"/><path fill="#746c59" d="M217.6 165.1H38.4V48.7h179.2zm-175.2-4h171.2V52.8H42.4z"/><rect width="188" height="8.15" x="34" y="156.8" fill="#746c59" rx="2.7"/><rect width="64" height="8.15" x="96" y="164.8" fill="#746c59" rx="1.6"/><rect width="188" height="8.15" x="34" y="47.8" fill="#746c59" rx="2.7"/><rect width="73.6" height="8.15" x="57.2" y="183.4" fill="#746c59" rx="2.1" transform="rotate(-45 94.043 187.446)"/><rect width="73.6" height="8.15" x="126.2" y="183.4" fill="#746c59" rx="2.1" transform="rotate(-135 163.004 187.475)"/><path fill="#f9d99d" d="M127 97a31.6 31.6 0 0 0-31-31v31z"/><path fill="#f9d99d" d="M87 106V75h-.5a31.5 31.5 0 1 0 31.5 31.5v-.5z"/><path fill="#e9c47f" d="M199 87l-41-.4a2 2 0 0 1 0-4l41 .4a2 2 0 0 1 0 4zm0 15l-41-.4a2 2 0 0 1 0-4l41 .4a2 2 0 0 1 0 4zm0 15l-41-.4a2 2 0 0 1 0-4l41 .4a2 2 0 0 1 0 4zm0 15l-41-.4a2 2 0 0 1-2-2 1.9 1.9 0 0 1 2-2l41 .4a2 2 0 0 1 0 4z"/><circle cx="146" cy="99" r="4" fill="#e9c47f"/><circle cx="146" cy="114" r="4" fill="#e9c47f"/><circle cx="146" cy="129" r="4" fill="#e9c47f"/><path fill="#f9d99d" d="M146 80a4 4 0 0 0-4 4 4.1 4.1 0 0 0 1.9 3.4l5-6.2A4.3 4.3 0 0 0 146 80z"/><path fill="#e9c47f" d="M150 84a4.1 4.1 0 0 0-1.1-2.8l-5 6.2a3.7 3.7 0 0 0 2.1.6 4 4 0 0 0 4-4z"/></symbol><symbol id="case-study-2-icon" viewBox="0 0 256 256"><path fill="#fff" d="M115 166.2h41.9v41.87H115z"/><path fill="#e2e2e0" d="M147.2 166.2v41.5h2.7c4 0 7.3-2.3 7.3-5v-30.8c0-3.2-2-5.7-4.4-5.7z" opacity=".5"/><rect width="183.7" height="117.55" x="44.1" y="47.3" fill="#fff" rx="11.8"/><path fill="#e2e2e0" d="M218 47h-32.2v.6a1.4 1.4 0 0 1-.2-.6L95.8 162.6s-1.6 1.5 4.4 2.3H181l1-.2 36-.9a9.8 9.8 0 0 0 9.8-9.8V56.8A9.8 9.8 0 0 0 218 47z" opacity=".5"/><path fill="#fff" d="M43.5 138.3h183.7v15.2a10.9 10.9 0 0 1-10.9 10.9H55.6a12.1 12.1 0 0 1-12.1-12.1v-14z"/><path fill="#fff" stroke="#746c59" stroke-miterlimit="10" stroke-width="3.81" d="M227.8 138.6H44.1"/><path fill="#746c59" d="M158.8 210h-45.7v-45.7h45.7zm-41.9-3.8H155v-38.1h-38.1z"/><rect width="100.9" height="9.07" x="85.5" y="207.4" fill="#746c59" rx="2.1"/><rect width="54.6" height="29.67" x="76.8" y="64.9" fill="#f9d99d" rx="2"/><path fill="#f9d99d" d="M78.1 108.8a2.1 2.1 0 0 0-2.1 2.1 2.1 2.1 0 0 0 2.1 2.2h56.1l3.4-4.3zm0 15.8a2.1 2.1 0 0 0-2.1 2.2 2.1 2.1 0 0 0 2.1 2.1h43.8l3.3-4.3zm0-7.9a2.1 2.1 0 0 0-2.1 2.1 2.1 2.1 0 0 0 2.1 2.2h50l3.3-4.3z"/><path fill="#e9c47f" d="M198.2 110.9a2.1 2.1 0 0 0-2.2-2.1h-58.4l-3.4 4.3H196a2.2 2.2 0 0 0 2.2-2.2zm-12.5 15.9a2.2 2.2 0 0 0-2.1-2.2h-58.4l-3.3 4.3h61.7a2.1 2.1 0 0 0 2.1-2.1zm11.3-8a2.1 2.1 0 0 0-2.1-2.1h-63.5l-3.3 4.3h66.8a2.1 2.1 0 0 0 2.1-2.2z"/><path fill="#f9d99d" d="M143.4 64.9a2 2 0 0 0-2 2v25.6a2 2 0 0 0 2 2.1h5.2l23-29.7z"/><path fill="#e9c47f" d="M196 92.5V66.9a2 2 0 0 0-2-2h-22.4l-23 29.7H194a2 2 0 0 0 2-2.1z"/><path fill="#746c59" d="M215.9 166.7h-160A13.7 13.7 0 0 1 42.2 153V59.1a13.7 13.7 0 0 1 13.7-13.7h160a13.7 13.7 0 0 1 13.8 13.7V153a13.7 13.7 0 0 1-13.8 13.7zM55.9 49.2a9.9 9.9 0 0 0-9.9 9.9V153a9.9 9.9 0 0 0 9.9 9.9h160a9.9 9.9 0 0 0 10-9.9V59.1a9.9 9.9 0 0 0-10-9.9z"/><rect width="82.8" height="111.11" x="9.5" y="92.9" fill="#fff" stroke="#746c59" stroke-miterlimit="10" stroke-width="3.81" rx="9.5"/><path fill="#e2e2e0" d="M85 103.7L18 191s-1.1 1.1 3.3 1.7h60.3c2.5 0 4.5-4.1 4.5-9.2v-73.8a15.3 15.3 0 0 0-1.1-6z" opacity=".5"/><circle cx="50.9" cy="197.8" r="2.3" fill="#746c59"/><circle cx="50.9" cy="98" r="1.1" fill="#746c59"/><rect width="69.2" height="89.57" x="16.3" y="103.1" fill="none" stroke="#746c59" stroke-miterlimit="10" stroke-width="3.75" rx="3"/><rect width="25.4" height="29.67" x="23.7" y="117.2" fill="#f9d99d" rx="1.4"/><path fill="#f9d99d" d="M55.2 117.2a1.4 1.4 0 0 0-1.4 1.4v25.8l20.8-27.2zm-30.9 40.5a2.1 2.1 0 0 0-2.1 2.1 2.1 2.1 0 0 0 2.1 2.2h16l3.3-4.3zm0 19.2a2.1 2.1 0 0 0-2.1 2.2 2.1 2.1 0 0 0 2.1 2.1h1.2l3.3-4.3zm0-10.2a2.1 2.1 0 0 0-2.1 2.2 2.1 2.1 0 0 0 2.1 2.1h9l3.3-4.3z"/><path fill="#e9c47f" d="M55.2 146.9h22.7a1.4 1.4 0 0 0 1.3-1.4v-26.9a1.3 1.3 0 0 0-1.3-1.4h-3.3l-20.8 27.2v1.1a1.4 1.4 0 0 0 1.4 1.4zm26.2 12.9a2.1 2.1 0 0 0-2.2-2.1H43.6l-3.3 4.3h38.9a2.2 2.2 0 0 0 2.2-2.2zm-5.8 19.3a2.2 2.2 0 0 0-2.2-2.2H28.8l-3.3 4.3h47.9a2.1 2.1 0 0 0 2.2-2.1zm5.3-10.2a2.2 2.2 0 0 0-2.2-2.2H36.6l-3.3 4.3h45.4a2.1 2.1 0 0 0 2.2-2.1z"/><rect width="55" height="89.64" x="191.5" y="124.7" fill="#fff" stroke="#746c59" stroke-miterlimit="10" stroke-width="4.04" rx="6.9"/><path fill="#e2e2e0" d="M240.2 135.2L198.5 202s-.7.9 2.1 1.3h37.5c1.5 0 2.8-3.1 2.8-7.1v-56.4a15.9 15.9 0 0 0-.7-4.6z" opacity=".5"/><ellipse cx="219.3" cy="208.4" fill="#746c59" rx="1.7" ry="1.8"/><ellipse cx="219.1" cy="129.6" fill="#746c59" rx=".8" ry="1"/><rect width="43.1" height="68.49" x="197.4" y="134.8" fill="none" stroke="#746c59" stroke-miterlimit="10" stroke-width="3.75" rx="2.1"/><path fill="#f9d99d" d="M234.5 143.2h-29.7a1.3 1.3 0 0 0-1.2 1.2v15.1a1.2 1.2 0 0 0 1.2 1.1h19.5l10.8-17.2zm-29.7 22.7a1.2 1.2 0 0 0-1.2 1.2v15a1.2 1.2 0 0 0 1.2 1.2h5.4l10.9-17.4zm1.2 21.8a2.2 2.2 0 0 0-2.2 2.2 2.1 2.1 0 0 0 1.1 1.8l2.5-4z"/><path fill="#e9c47f" d="M235.7 159.5v-15.1a1.1 1.1 0 0 0-.6-1l-10.8 17.2h10.2a1.1 1.1 0 0 0 1.2-1.1zm0 22.6v-15a1.2 1.2 0 0 0-1.2-1.2h-13.4l-10.9 17.4h24.3a1.2 1.2 0 0 0 1.2-1.2zm-2.3 9.9a2.2 2.2 0 1 0 0-4.3h-26l-2.5 4a2 2 0 0 0 1.1.3zm-2.9 2.9H206a2.1 2.1 0 0 0-2.2 2.1 2.2 2.2 0 0 0 2.2 2.2h24.5a2.2 2.2 0 0 0 2.2-2.2 2.1 2.1 0 0 0-2.2-2.1z"/></symbol><symbol id="case-study-4-icon" viewBox="0 0 256 256"><path fill="#746c59" d="M132.7 226.8h70.6c2.5 0 4.6-1.6 4.6-3.7v-33.4c0-2.1-2.1-3.7-4.6-3.7h-26.8l-32.3 30zm11.5-10.8l-11.6 10.8h.1l11.5-10.8z"/><path fill="#847d6c" d="M176.2 186H65.8c-2.5 0-4.5 1.6-4.5 3.7v33.4c0 2.1 2 3.7 4.5 3.7h66.8l11.6-10.8zm.3 0h-.3l-32 30 32.3-30z"/><path fill="#746c59" d="M203.3 182.8h-23.7l-1.7 1.6h25.4c3.6 0 6.5 2.4 6.5 5.3v33.4c0 2.9-2.9 5.3-6.5 5.3H131l-1.7 1.6h74c4.7 0 8.5-3.1 8.5-6.9v-33.4c0-3.8-3.8-6.9-8.5-6.9z"/><path fill="#847d6c" d="M130.9 228.4l-.6.5.6-.5H65.8c-3.6 0-6.5-2.4-6.5-5.3v-33.4c0-2.9 2.9-5.3 6.5-5.3h112.1l1.7-1.6H65.8c-4.7 0-8.4 3.1-8.4 6.9v33.4c0 3.8 3.7 6.9 8.4 6.9h63.5l1.7-1.6z"/><path fill="#847d6c" d="M59.3 189.7v33.4c0 2.9 2.9 5.3 6.5 5.3h65.1l1.7-1.6H65.8c-2.5 0-4.5-1.6-4.5-3.7v-33.4c0-2.1 2-3.7 4.5-3.7h110.4l1.7-1.6H65.8c-3.6 0-6.5 2.4-6.5 5.3z"/><path fill="#847d6c" d="M132.6 226.8l-1.7 1.6h.1l1.7-1.6h-.1z"/><path fill="#746c59" d="M176.5 186l1.1-1.1-1.1 1.1h26.8c2.5 0 4.6 1.6 4.6 3.7v33.4c0 2.1-2.1 3.7-4.6 3.7h-70.6l-1.7 1.6h72.3c3.6 0 6.5-2.4 6.5-5.3v-33.4c0-2.9-2.9-5.3-6.5-5.3h-25.4l-1.7 1.6z"/><path fill="#746c59" d="M203.3 186h-26.8l-3 2.7a1.1 1.1 0 0 1 .8 1v1.7c0 .6-.5 1-1.2 1h-3.6l-7.7 7.2v3.3c0 .8-.7 1.3-1.6 1.3h-3.4l-5.5 5.2v2.1a1.5 1.5 0 0 1-1.6 1.3h-2.1l-3.4 3.2-.6.6h14.1a2 2 0 0 1 2.2 1.8v2.8a2 2 0 0 1-2.2 1.8h-21l-4 3.8h70.6c2.5 0 4.6-1.6 4.6-3.7v-33.4c0-2.1-2.1-3.7-4.6-3.7zm-41.5 25.5a1.5 1.5 0 0 1-1.6 1.3h-4.6c-.9 0-1.7-.6-1.7-1.3v-3.8c0-.7.8-1.3 1.7-1.3h4.6a1.5 1.5 0 0 1 1.6 1.3zm42.1-12.4v3.8c0 .8-.7 1.3-1.6 1.3h-4.7c-.9 0-1.6-.5-1.6-1.3v-3.8a1.5 1.5 0 0 1 1.6-1.3h4.7a1.5 1.5 0 0 1 1.6 1.3zm-23-9.4c0-.6.5-1 1.2-1h5.4c.7 0 1.3.4 1.3 1v1.7c0 .6-.6 1-1.3 1h-5.4c-.7 0-1.2-.4-1.2-1zm-5.9 9.4a1.5 1.5 0 0 1 1.6-1.3h4.6c.9 0 1.7.6 1.7 1.3v3.8c0 .8-.8 1.3-1.7 1.3h-4.6c-.9 0-1.6-.5-1.6-1.3zm0 8.6a1.5 1.5 0 0 1 1.6-1.3h4.6c.9 0 1.7.6 1.7 1.3v3.8c0 .7-.8 1.3-1.7 1.3h-4.6a1.5 1.5 0 0 1-1.6-1.3zm-10.5-8.6a1.5 1.5 0 0 1 1.6-1.3h4.6a1.5 1.5 0 0 1 1.6 1.3v3.8c0 .8-.7 1.3-1.6 1.3h-4.6c-.9 0-1.6-.5-1.6-1.3zm0 8.6a1.5 1.5 0 0 1 1.6-1.3h4.6a1.5 1.5 0 0 1 1.6 1.3v3.8a1.5 1.5 0 0 1-1.6 1.3h-4.6a1.5 1.5 0 0 1-1.6-1.3zm12.4 14.4a1 1 0 0 1-1.1.9h-11.5c-.6 0-1.2-.4-1.2-.9v-4.6c0-.5.6-.9 1.2-.9h11.5a1 1 0 0 1 1.1.9zm14.8-.5a1.5 1.5 0 0 1-1.7 1.4h-7.1a1.6 1.6 0 0 1-1.7-1.4V218a1.6 1.6 0 0 1 1.7-1.4h7.1a1.5 1.5 0 0 1 1.7 1.4zm1.7-10.1a1.5 1.5 0 0 1-1.6 1.3h-4.7a1.5 1.5 0 0 1-1.6-1.3v-3.8a1.5 1.5 0 0 1 1.6-1.3h4.7a1.5 1.5 0 0 1 1.6 1.3zm0-8.6c0 .8-.7 1.3-1.6 1.3h-4.7c-.9 0-1.6-.5-1.6-1.3v-3.8a1.5 1.5 0 0 1 1.6-1.3h4.7a1.5 1.5 0 0 1 1.6 1.3zm1.9-11.5v-1.7c0-.6.6-1 1.3-1h5.4c.7 0 1.2.4 1.2 1v1.7c0 .6-.5 1-1.2 1h-5.4c-.7 0-1.3-.4-1.3-1zm.7 16.3a1.5 1.5 0 0 1 1.6-1.3h4.7a1.5 1.5 0 0 1 1.6 1.3v3.8a1.5 1.5 0 0 1-1.6 1.3h-4.7a1.5 1.5 0 0 1-1.6-1.3zm8.2 14.1a1.4 1.4 0 0 1-1.5 1.2h-4.9a1.4 1.4 0 0 1-1.5-1.2v-4a1.4 1.4 0 0 1 1.5-1.2h4.9a1.4 1.4 0 0 1 1.5 1.2z"/><path fill="#fff" d="M71.9 192.4c.7 0 1.2-.4 1.2-1v-1.7c0-.6-.5-1-1.2-1h-5.4c-.7 0-1.3.4-1.3 1v1.7c0 .6.6 1 1.3 1zm9 0h5.4c.7 0 1.3-.4 1.3-1v-1.7c0-.6-.6-1-1.3-1h-5.4c-.7 0-1.2.4-1.2 1v1.7c0 .6.5 1 1.2 1zm14.5 0h5.4c.7 0 1.2-.4 1.2-1v-1.7c0-.6-.5-1-1.2-1h-5.4c-.7 0-1.3.4-1.3 1v1.7c0 .6.6 1 1.3 1zm14.4 0h5.5a1.1 1.1 0 0 0 1.2-1v-1.7a1.1 1.1 0 0 0-1.2-1h-5.5c-.7 0-1.2.4-1.2 1v1.7c0 .6.5 1 1.2 1zm14.5 0h5.4c.7 0 1.2-.4 1.2-1v-1.7c0-.6-.5-1-1.2-1h-5.4c-.7 0-1.2.4-1.2 1v1.7c0 .6.5 1 1.2 1zm14.4 0h5.5a1.1 1.1 0 0 0 1.2-1v-1.7a1.1 1.1 0 0 0-1.2-1h-5.5a1.1 1.1 0 0 0-1.2 1v1.7a1.1 1.1 0 0 0 1.2 1zm14.5 0h5.4c.7 0 1.3-.4 1.3-1v-1.7c0-.6-.6-1-1.3-1h-5.4c-.7 0-1.2.4-1.2 1v1.7c0 .6.5 1 1.2 1zm19.9-3.7h-5.4c-.7 0-1.3.4-1.3 1v1.7c0 .6.6 1 1.3 1h1.8l4-3.7z"/><path fill="#e2e2e0" d="M174.3 191.4v-1.7a1.1 1.1 0 0 0-.8-1l-4 3.7h3.6c.7 0 1.2-.4 1.2-1zm7.8 1h5.4c.7 0 1.3-.4 1.3-1v-1.7c0-.6-.6-1-1.3-1h-5.4c-.7 0-1.2.4-1.2 1v1.7c0 .6.5 1 1.2 1zm19.9 0c.7 0 1.2-.4 1.2-1v-1.7c0-.6-.5-1-1.2-1h-5.4c-.7 0-1.3.4-1.3 1v1.7c0 .6.6 1 1.3 1z"/><path fill="#fff" d="M65.9 199.4v3.2a1.8 1.8 0 0 0 2 1.6h7.8a1.8 1.8 0 0 0 2-1.6v-3.2a1.8 1.8 0 0 0-2-1.6h-7.8a1.8 1.8 0 0 0-2 1.6zm20.7-1.6h-4.7a1.5 1.5 0 0 0-1.6 1.3v3.8a1.5 1.5 0 0 0 1.6 1.3h4.7c.9 0 1.6-.5 1.6-1.3v-3.8a1.5 1.5 0 0 0-1.6-1.3zm5.9 6.4h4.6c.9 0 1.6-.5 1.6-1.3v-3.8a1.5 1.5 0 0 0-1.6-1.3h-4.6a1.5 1.5 0 0 0-1.6 1.3v3.8c0 .8.7 1.3 1.6 1.3zm8.9-5.1v3.8c0 .8.7 1.3 1.6 1.3h4.6c.9 0 1.7-.5 1.7-1.3v-3.8c0-.7-.8-1.3-1.7-1.3H103a1.5 1.5 0 0 0-1.6 1.3zm10.5 0v3.8c0 .8.7 1.3 1.6 1.3h4.7a1.5 1.5 0 0 0 1.6-1.3v-3.8a1.5 1.5 0 0 0-1.6-1.3h-4.7a1.5 1.5 0 0 0-1.6 1.3zm12.1 5.1h4.7c.9 0 1.6-.5 1.6-1.3v-3.8a1.5 1.5 0 0 0-1.6-1.3H124a1.5 1.5 0 0 0-1.6 1.3v3.8c0 .8.7 1.3 1.6 1.3zm10.5 0h4.7c.9 0 1.6-.5 1.6-1.3v-3.8a1.5 1.5 0 0 0-1.6-1.3h-4.7a1.5 1.5 0 0 0-1.6 1.3v3.8c0 .8.7 1.3 1.6 1.3zm8.9-5.1v3.8c0 .8.7 1.3 1.6 1.3h4.7c.9 0 1.6-.5 1.6-1.3v-3.8a1.5 1.5 0 0 0-1.6-1.3H145a1.5 1.5 0 0 0-1.6 1.3zm18.4 0a1.5 1.5 0 0 0-1.6-1.3h-4.6c-.9 0-1.7.6-1.7 1.3v3.8c0 .8.8 1.3 1.7 1.3h1.2l5-4.6z"/><path fill="#e2e2e0" d="M161.8 202.9v-3.3l-5 4.6h3.4c.9 0 1.6-.5 1.6-1.3zm4.3 1.3h4.6c.9 0 1.6-.5 1.6-1.3v-3.8a1.5 1.5 0 0 0-1.6-1.3h-4.6a1.5 1.5 0 0 0-1.6 1.3v3.8c0 .8.7 1.3 1.6 1.3zm10.5 0h4.6c.9 0 1.7-.5 1.7-1.3v-3.8c0-.7-.8-1.3-1.7-1.3h-4.6a1.5 1.5 0 0 0-1.6 1.3v3.8c0 .8.7 1.3 1.6 1.3zm15.2-6.4h-4.7a1.5 1.5 0 0 0-1.6 1.3v3.8c0 .8.7 1.3 1.6 1.3h4.7c.9 0 1.6-.5 1.6-1.3v-3.8a1.5 1.5 0 0 0-1.6-1.3zm5.8 0a1.5 1.5 0 0 0-1.6 1.3v3.8c0 .8.7 1.3 1.6 1.3h4.7c.9 0 1.6-.5 1.6-1.3v-3.8a1.5 1.5 0 0 0-1.6-1.3z"/><path fill="#fff" d="M85.5 206.4H68.6a2.5 2.5 0 0 0-2.7 2.2v2a2.5 2.5 0 0 0 2.7 2.2h16.9a2.5 2.5 0 0 0 2.7-2.2v-2a2.5 2.5 0 0 0-2.7-2.2zm7 6.4h4.6a1.5 1.5 0 0 0 1.6-1.3v-3.8a1.5 1.5 0 0 0-1.6-1.3h-4.6a1.5 1.5 0 0 0-1.6 1.3v3.8a1.5 1.5 0 0 0 1.6 1.3zm16.8-1.3v-3.8c0-.7-.8-1.3-1.7-1.3H103a1.5 1.5 0 0 0-1.6 1.3v3.8a1.5 1.5 0 0 0 1.6 1.3h4.6c.9 0 1.7-.6 1.7-1.3zm8.9-5.1h-4.7a1.5 1.5 0 0 0-1.6 1.3v3.8a1.5 1.5 0 0 0 1.6 1.3h4.7a1.5 1.5 0 0 0 1.6-1.3v-3.8a1.5 1.5 0 0 0-1.6-1.3zm5.8 6.4h4.7a1.5 1.5 0 0 0 1.6-1.3v-3.8a1.5 1.5 0 0 0-1.6-1.3H124a1.5 1.5 0 0 0-1.6 1.3v3.8a1.5 1.5 0 0 0 1.6 1.3zm10.5 0h4.7a1.5 1.5 0 0 0 1.6-1.3v-3.8a1.5 1.5 0 0 0-1.6-1.3h-4.7a1.5 1.5 0 0 0-1.6 1.3v3.8a1.5 1.5 0 0 0 1.6 1.3zm16.8-5.1a1.5 1.5 0 0 0-1.6-1.3H145a1.5 1.5 0 0 0-1.6 1.3v3.8a1.5 1.5 0 0 0 1.6 1.3h2.6l3.7-3.4z"/><path fill="#e2e2e0" d="M151.3 211.5v-2.1l-3.7 3.4h2.1a1.5 1.5 0 0 0 1.6-1.3zm8.9-5.1h-4.6c-.9 0-1.7.6-1.7 1.3v3.8c0 .7.8 1.3 1.7 1.3h4.6a1.5 1.5 0 0 0 1.6-1.3v-3.8a1.5 1.5 0 0 0-1.6-1.3zm5.9 6.4h4.6a1.5 1.5 0 0 0 1.6-1.3v-3.8a1.5 1.5 0 0 0-1.6-1.3h-4.6a1.5 1.5 0 0 0-1.6 1.3v3.8a1.5 1.5 0 0 0 1.6 1.3zm10.5 0h4.6c.9 0 1.7-.6 1.7-1.3v-3.8c0-.7-.8-1.3-1.7-1.3h-4.6a1.5 1.5 0 0 0-1.6 1.3v3.8a1.5 1.5 0 0 0 1.6 1.3zm15.2-6.4h-4.7a1.5 1.5 0 0 0-1.6 1.3v3.8a1.5 1.5 0 0 0 1.6 1.3h4.7a1.5 1.5 0 0 0 1.6-1.3v-3.8a1.5 1.5 0 0 0-1.6-1.3zm5.8 6.4h4.7a1.5 1.5 0 0 0 1.6-1.3v-3.8a1.5 1.5 0 0 0-1.6-1.3h-4.7a1.5 1.5 0 0 0-1.6 1.3v3.8a1.5 1.5 0 0 0 1.6 1.3z"/><path fill="#fff" d="M110.1 216.6a2 2 0 0 0-2.2 1.8v2.8a2 2 0 0 0 2.2 1.8h26.6l6.9-6.4z"/><path fill="#e2e2e0" d="M159.9 221.2v-2.8a2 2 0 0 0-2.2-1.8h-14.1l-6.9 6.4h21a2 2 0 0 0 2.2-1.8z"/><path fill="#fff" d="M103.5 216.6H92a1 1 0 0 0-1.1.9v4.6a1 1 0 0 0 1.1.9h11.5c.6 0 1.2-.4 1.2-.9v-4.6c0-.5-.6-.9-1.2-.9zm-30.9 0h-4.9a1.4 1.4 0 0 0-1.5 1.2v4a1.4 1.4 0 0 0 1.5 1.2h4.9a1.4 1.4 0 0 0 1.5-1.2v-4a1.4 1.4 0 0 0-1.5-1.2zm13.6 0h-7.1a1.6 1.6 0 0 0-1.7 1.4v3.6a1.6 1.6 0 0 0 1.7 1.4h7.1a1.6 1.6 0 0 0 1.7-1.4V218a1.6 1.6 0 0 0-1.7-1.4z"/><path fill="#e2e2e0" d="M202.7 216.6h-4.9a1.4 1.4 0 0 0-1.5 1.2v4a1.4 1.4 0 0 0 1.5 1.2h4.9a1.4 1.4 0 0 0 1.5-1.2v-4a1.4 1.4 0 0 0-1.5-1.2zm-26.9 0h-11.5c-.6 0-1.2.4-1.2.9v4.6c0 .5.6.9 1.2.9h11.5a1 1 0 0 0 1.1-.9v-4.6a1 1 0 0 0-1.1-.9zm14.2 0h-7.1a1.6 1.6 0 0 0-1.7 1.4v3.6a1.6 1.6 0 0 0 1.7 1.4h7.1a1.5 1.5 0 0 0 1.7-1.4V218a1.5 1.5 0 0 0-1.7-1.4z"/><path fill="#746c59" d="M203.4 140.9h-2.2v4.7c.9 0 1.7 2.1 1.7 4.6s-.8 4.7-1.7 4.7V176h2.2a10.4 10.4 0 0 0 10.3-10.3v-14.5a10.3 10.3 0 0 0-10.3-10.3z"/><path fill="#847d6c" d="M199.4 150.2c0-2.5.8-4.6 1.8-4.6v-4.7h-2a10.3 10.3 0 0 0-10.3 10.3v14.5a10.3 10.3 0 0 0 10.3 10.3h2v-21.1c-1 0-1.8-2.1-1.8-4.7z"/><path fill="#e2e2e0" d="M202.9 150.2c0-2.5-.8-4.6-1.7-4.6v9.3c.9 0 1.7-2.1 1.7-4.7z"/><path fill="#fff" d="M199.4 150.2c0 2.6.8 4.7 1.8 4.7v-9.3c-1 0-1.8 2.1-1.8 4.6zM69.6 35.2a8.4 8.4 0 0 0-8.3 8.3v78.6a8.3 8.3 0 0 0 8.3 8.3h134a8.3 8.3 0 0 0 8.3-8.3V43.5a8.4 8.4 0 0 0-8.3-8.3z"/><path fill="#fff" d="M119.1 129.9h35v35.04h-35z"/><path fill="#e2e2e0" d="M146 129.9v34.8h2.3c3.4 0 6.1-1.9 6.1-4.2v-25.8c0-2.6-1.7-4.8-3.7-4.8z" opacity=".5"/><path fill="#746c59" d="M155.7 166.6h-38.2v-38.3h38.2zm-35-3.2h31.8v-31.9h-31.8z"/><rect width="84.4" height="7.59" x="94.4" y="164.5" fill="#746c59" rx="1.8"/><path fill="#e2e2e0" d="M205.3 33.4h-27v.5c-.1-.1-.1-.3-.2-.5L103 130.1s-1.3 1.3 3.7 2h67.6l.9-.2 30.1-.8a8.2 8.2 0 0 0 8.2-8.2V41.6a8.2 8.2 0 0 0-8.2-8.2z" opacity=".5"/><path fill="#746c59" d="M203.6 132.5h-134a10.4 10.4 0 0 1-10.3-10.4V43.5a10.3 10.3 0 0 1 10.3-10.3h134a10.3 10.3 0 0 1 10.3 10.3v78.6a10.4 10.4 0 0 1-10.3 10.4zm-134-95.2a6.2 6.2 0 0 0-6.2 6.2v78.6a6.3 6.3 0 0 0 6.2 6.3h134a6.3 6.3 0 0 0 6.2-6.3V43.5a6.2 6.2 0 0 0-6.2-6.2z"/><path fill="#746c59" d="M59.3 109.8H213v12.7a9.1 9.1 0 0 1-9.1 9.1H69.4a10.1 10.1 0 0 1-10.1-10.1v-11.7z"/><path fill="#fff" stroke="#746c59" stroke-miterlimit="10" stroke-width="3.19" d="M213.5 110.1H59.7"/><path fill="#bdbdb9" d="M133 97.6v-.2a18.4 18.4 0 0 1-4-.3l-.2.3a20.3 20.3 0 0 0 4.2.2z" opacity=".5"/><path fill="#d2d2cf" d="M119.8 93.8l-1-.6a4.4 4.4 0 0 1-3.4-2.4 25 25 0 0 1-5.7-6 16.2 16.2 0 0 1-1-1.8 4.6 4.6 0 0 1-1.3-2.9 27.2 27.2 0 0 1-1.2-8v-.2a5 5 0 0 1 .4-4.4c.2-.7.3-1.4.5-2.2l.4-1.6.5-1.7c.3-1.1.8-2.1 1.1-3.2h-.1a20.2 20.2 0 0 0-1.8 3.2h.5c-.4 1.4-1 3.9-2.5 5.5a23.2 23.2 0 0 0-.7 4.6v2.3l.7-.2a11.3 11.3 0 0 1 0 4.5l.2.5a21.4 21.4 0 0 0 3.2 6.4l.9 1.2a12.1 12.1 0 0 1 2.7 2.8 29.6 29.6 0 0 0 7.2 4.9l2.4 1.1 2.2.7 2 .6 2.7.5.2-.3-2.7-.7a35.8 35.8 0 0 1-6.4-2.6z" opacity=".5"/><path fill="#f9d99d" d="M107.2 62c-4.6-.1-6.1 3.9-5.8 6.7a4.3 4.3 0 0 0 3.8-1.2c1.5-1.6 2.1-4.1 2.5-5.5zm-2 12.2l-.7.2c-3.4 1.5-3.3 5.1-2.2 7.1a3.5 3.5 0 0 0 2.9-2.8 11.3 11.3 0 0 0 0-4.5zm7 15.4a12.1 12.1 0 0 0-2.7-2.8l-.3-.3c-2 3.6.6 6.2 2.9 6.9a3.5 3.5 0 0 0 .1-3.8zm11.8 6.7l-2.2-.7-.5-.2c-.3 3.6 2.8 4.7 4.8 4.5.3-1.9-.8-2.9-2.1-3.6zm-17.4-28.7a5 5 0 0 0-.4 4.4 6 6 0 0 0 3.9 3.3c2.1-3.7-1.7-6.4-3.5-7.7zm.8 12.3v.2a4.6 4.6 0 0 0 1.3 2.9 5.1 5.1 0 0 0 4.8 1.2c0-3.7-4.2-4.1-6.1-4.3zm7.9 10.8h.1a4.4 4.4 0 0 0 3.4 2.4 5.6 5.6 0 0 0 4-1.4c-1.7-3.3-5.7-1.7-7.5-1z"/><path fill="#bdbdb9" d="M165.6 62h.5a20.2 20.2 0 0 0-1.8-3.2h-.1c.3 1.1.8 2.1 1.1 3.2l.5 1.7.4 1.6c.2.8.3 1.5.5 2.2a5 5 0 0 1 .4 4.4v.2a27.2 27.2 0 0 1-1.2 8 4.6 4.6 0 0 1-1.3 2.9 16.2 16.2 0 0 1-1 1.8 26.6 26.6 0 0 1-5.6 6 4.7 4.7 0 0 1-3.5 2.4l-1 .6a35.8 35.8 0 0 1-6.4 2.6 19.1 19.1 0 0 1-6.7 1v.2a20.6 20.6 0 0 0 7-.7l2-.6 2.2-.7 2.4-1.1a29.6 29.6 0 0 0 7.2-4.9 12.1 12.1 0 0 1 2.7-2.8l.9-1.2a21.4 21.4 0 0 0 3.2-6.4l.2-.5a11.3 11.3 0 0 1 0-4.5l.7.2v-2.3a23.2 23.2 0 0 0-.7-4.6c-1.6-1.6-2.2-4.1-2.6-5.5z" opacity=".5"/><path fill="#e9c47f" d="M166.1 62h-.5c.4 1.4 1 3.9 2.5 5.5a4.3 4.3 0 0 0 3.8 1.2c.3-2.8-1.2-6.8-5.8-6.7zm2.7 12.4l-.7-.2a11.3 11.3 0 0 0 0 4.5 3.5 3.5 0 0 0 2.9 2.8c1.1-2 1.2-5.6-2.2-7.1zm-4.7 12.1l-.3.3a12.1 12.1 0 0 0-2.7 2.8 3.5 3.5 0 0 0 .1 3.8c2.3-.7 4.9-3.3 2.9-6.9zm-16.9 13.4c2.1.2 5.1-.9 4.8-4.5l-.5.2-2.2.7c-1.3.7-2.4 1.7-2.1 3.6z"/><path fill="#62877b" d="M151.5 95.6l-2.2.7z"/><path fill="#e9c47f" d="M166.7 67.5c-1.8 1.3-5.6 4-3.5 7.6a6 6 0 0 0 3.9-3.3 5 5 0 0 0-.4-4.3zm-6.8 16.7a5 5 0 0 0 4.7-1.2 4.6 4.6 0 0 0 1.3-2.9v-.2c-1.9.2-6.1.6-6 4.3zm-9.4 7.6a5.6 5.6 0 0 0 4 1.4 4.7 4.7 0 0 0 3.5-2.4h.1c-1.8-.8-5.9-2.4-7.6 1z"/><path fill="#9eb2c2" d="M112 67.6a30.6 30.6 0 0 1 1.3-7 26.3 26.3 0 0 0-1.3 7z"/><path fill="#d2d2cf" d="M144.2 75c.2-1.4-.6-.8-2-.2s-2.7.1-4.6-1.5-.2-1.6-.5-3.2 2.2-3 3-4.1-.8-1.1-.8-2.1 1.9-.8 1.7-1.7-1.4-1-2.1-2.4 0-1.7 1.6-2.1.5.9 1 2 .7 0 1.7-.5.2-1-.2-1.5-1.1-1.4-.7-1.9.7-.1 1.6-1 0-.5.6-2 .7-.9 2.3-1.4 1.4.5 1.7 1.2 1 .5 1.5 0a2.8 2.8 0 0 1 1.9-.9c1.1-.2 1.1-.6.8-2a24.3 24.3 0 0 0-13.5-5.8 2.8 2.8 0 0 1 .9 1.6c0 .8-.7.6-1 1.6a6.5 6.5 0 0 1-1.3 3.1c-.8.8-.1.7.3 1.6s-.7 1-2.9 2a4.7 4.7 0 0 0-2.2 1.8c-.3.4-.5.9-.8 1.4l-.7-1.2c-.7-1.1-.3-2.2.4-3.6a8.3 8.3 0 0 0 .7-2.7c.3-1.2-.2-.6-1.2-1.3s.2-1 1.2-1.6 1.1-.6.7-.9-.9.2-1.9.9-1.3 1.2-2 .8 0-1.4.7-2.7a28.5 28.5 0 0 0-5.1 2 1.2 1.2 0 0 1 1.7.8c.5 1.3-.3 1.4.3 1.9s1.4-.5 2 0 .8 2.4.9 4a2.3 2.3 0 0 1-1.7 2.4c-.8.2-1-1-1.1-2s1.2-1.9.5-2.3-1.5 1.9-1.7 2.4-.7.6-1.4 0-2.3 1.2-2.8 2.7 1.5 1.2 1.5 1.9.3 1.3.3.8.7-.7 1.1-1.4.5-2.6 1.6-2.8 1.8 1.8 1.9 2.9 1.4 3.7.6 4.2-1-1.3-2.2-1.6.3 1.4-.2 2.2-.9.9-2.2.8-.6 1.2-1.3 1.9-1.2.8-1.8 1.7.7 2.5 0 2.5-.3-1.1-2.5-1.9-2.2 2-1.6 3 3.2.8 3.2 1.6.8.6 1.6 1.1 1.1 0 1.7-.4 2.2.3 2.9.9.9.4 1.9.8.7 1.4 1.3 1.7 2 .5 3 1a2.7 2.7 0 0 1 .8.7c.5.7.3 2.2-.1 3.2a1.8 1.8 0 0 1-.6.8c-.6.6-1.1.6-1.5 1.5s.4 1.1 0 2.2-1.2 1.5-1 2.8a10.8 10.8 0 0 0 1.7 4h.5l11.8-15.2c-.8-.9 0-1.1.1-2.5z" opacity=".5"/><path fill="#bdbdb9" d="M161 72.7c-.1 0-1.3-3.2-1.8-4.2s-1.7-.1-2.5-.6-2.4-1-2.4-.5 1.2 1 2.1 1.4-.3 1.2-1.3 2.4-1.4.4-2.1.7.1.6 1 .6.6 1-1.1 2.2-1.3.8-.9 2.9.2 1.4-.9 2.6-.4.6-.6 1.6a16 16 0 0 1-2.3 3.8c-.8 1.1-2.4.3-2.4-1.3s-1.4-3.1-1-4.4.3-1-.7-2.1v-.2l-11.8 15.2a27.1 27.1 0 0 0 4.1.4h.3A24.7 24.7 0 0 0 161 72.7z" opacity=".5"/><path fill="#d2d2cf" d="M126.8 85.5a9.8 9.8 0 0 0-1.4-3.8c-.7-.8-1.1-.2-2.6-2 0 0-1.6-1.4-1.4-2.7s.8-1.2.6-2.3-2.4-1.1-2.7-1.5-3.3-.8-4.4-1.5-1.7-2.1-2.9-3.9v.7a24.6 24.6 0 0 0 18.2 23.8 23.4 23.4 0 0 0-1.5-2c-.7-.7-1.7-3.9-1.9-4.8z" opacity=".5"/><path fill="#597f74" d="M112 67.8zm18.2 24.5z"/><path fill="#f9d99d" d="M133.3 78.2a2.7 2.7 0 0 0-.8-.7c-1-.5-2.5-.7-3-1s-.4-1.4-1.3-1.7-1.3-.2-1.9-.8-2.3-1.3-2.9-.9-1 .9-1.7.4-1.6-.3-1.6-1.1-2.6-.5-3.2-1.6-.7-3.8 1.6-3 1.8 2 2.5 1.9-.6-1.6 0-2.5 1.1-.9 1.8-1.7 0-1.9 1.3-1.9 1.7-.1 2.2-.8-1.1-2.5.2-2.2 1.5 2.1 2.2 1.6-.5-3.2-.6-4.2-.8-3.1-1.9-2.9-1.1 2.2-1.6 2.8-1.1 1-1.1 1.4-.3-.2-.3-.8-2.1-.5-1.5-1.9 2.2-3.2 2.8-2.7 1.2.4 1.4 0 .9-2.8 1.7-2.4-.5 1.3-.5 2.3.3 2.2 1.1 2a2.3 2.3 0 0 0 1.7-2.4c-.1-1.6-.3-3.5-.9-4s-1.5.4-2 0 .2-.6-.3-1.9a1.2 1.2 0 0 0-1.7-.8 23.2 23.2 0 0 0-11.7 13.9 30.6 30.6 0 0 0-1.3 7v.2c1.2 1.8 1.8 3.3 2.9 3.9s4 1.2 4.4 1.5 2.6.4 2.7 1.5-.5 1.1-.6 2.3 1.4 2.7 1.4 2.7c1.5 1.8 1.9 1.2 2.6 2a9.8 9.8 0 0 1 1.4 3.8c.2.9 1.2 4.1 1.9 4.8a23.4 23.4 0 0 1 1.5 2h.2l1.4.3a10.8 10.8 0 0 1-1.7-4c-.2-1.3.7-1.8 1-2.8s-.5-1.4 0-2.2.9-.9 1.5-1.5a1.8 1.8 0 0 0 .6-.8c.4-.9.6-2.4.1-3.1zm5.9-34.3h-2.8c-4.9.1-6.3.9-6.3.9-.7 1.3-1.5 2.3-.7 2.7s1.1-.1 2-.8 1.6-1.2 1.9-.9.4.3-.7.9-2.2.9-1.2 1.6 1.5.1 1.2 1.3a8.3 8.3 0 0 1-.7 2.7c-.7 1.4-1.1 2.5-.4 3.6l.7 1.2c.3-.5.5-1 .8-1.4a4.7 4.7 0 0 1 2.2-1.8c2.2-1 3.4-1.2 2.9-2s-1.1-.8-.3-1.6a6.5 6.5 0 0 0 1.3-3.1c.3-1 1-.8 1-1.6a2.8 2.8 0 0 0-.9-1.7z"/><path fill="#597f74" d="M152.7 49.7c.2.2.4.3.5.5s-.3-.3-.5-.5zm8.3 23c0-.2.1-.3.1-.4s-.1.2-.1.4z"/><path fill="#e9c47f" d="M159.2 58.2h-.1l-15 19.4v.2c1 1.1 1.1.9.7 2.1s1.1 2.9 1 4.4 1.6 2.4 2.4 1.3a16 16 0 0 0 2.3-3.8c.2-1-.6-.4.6-1.6s1.4-.4.9-2.6-.9-1.6.9-2.9 2-2.2 1.1-2.2-1.8-.2-1-.6 1.2.6 2.1-.7 2.2-1.9 1.3-2.4-2.1-.9-2.1-1.4 1.6 0 2.4.5 2.1-.4 2.5.6 1.7 4.2 1.8 4.2.1-.3.1-.4a23.5 23.5 0 0 0-1.9-14.1z"/><path fill="#f9d99d" d="M156.5 53.8a.2.2 0 0 0-.2-.2 1 1 0 0 0-.4-.5l-.4-.6-.3-.3-.4-.5-.5-.5-.2-.2-.7-.7h-.2c-.1-.2-.3-.3-.5-.5.3 1.4.3 1.8-.8 2a2.8 2.8 0 0 0-1.9.9c-.5.5-1.1.8-1.5 0s-.1-1.6-1.7-1.2-1.6-.1-2.3 1.4.2 1.1-.6 2-1.1.4-1.6 1 .2 1.3.7 1.9 1.2 1 .2 1.5-1.3 1.7-1.7.5.6-2.4-1-2-2.2.7-1.6 2.1 1.8 1.5 2.1 2.4-1.7.6-1.7 1.7 1.6 1 .8 2.1-3.3 2.5-3 4.1-1.4 1.7.5 3.2 3.2 2 4.6 1.5 2.2-1.2 2 .2-.9 1.6-.1 2.6l15-19.4h.1a27.2 27.2 0 0 0-2.7-4.5z"/><path fill="#746c59" d="M67.6 90.8a2.4 2.4 0 0 1 .4 1.5 2.6 2.6 0 0 1-.8 1.3L63 96.8a1.1 1.1 0 0 1-.7.3h-.8a2.2 2.2 0 0 1-1.3-.8L49.1 81.9a1.8 1.8 0 0 1-.4-1.4 1.7 1.7 0 0 1 .8-1.3l4.2-3.3a2 2 0 0 1 2.8.4zM66 92L54.9 77.5l-4.2 3.2 11 14.5L66 92z"/><path fill="#746c59" d="M54.9 77.5L66 92l-4.3 3.2-11-14.5zm45.7-25.8a34.4 34.4 0 0 1 1.2 6.4 2.5 2.5 0 0 1-1.7 2.6l-2.8.7a2.1 2.1 0 0 1-1.9-.3 2.7 2.7 0 0 1-1.1-1.8 36.6 36.6 0 0 0-1-5.6C89.4 39.9 76.7 31.2 65 34.5S46.9 51.8 50.8 65.7a29.5 29.5 0 0 0 2 5.2 2.4 2.4 0 0 1 .1 2.2 2 2 0 0 1-1.5 1.2l-2.8.8a2.4 2.4 0 0 1-2.8-1.3 40.4 40.4 0 0 1-2.3-6.1c-5-18 3.6-36.3 19.4-40.7s32.6 6.6 37.7 24.7zm-.8 6.6a43.4 43.4 0 0 0-1.1-6.1c-4.8-17-20.6-27.5-35.3-23.3s-22.7 21.3-18 38.3a40.7 40.7 0 0 0 2.2 5.8.4.4 0 0 0 .5.2l2.8-.7.2-.3v-.4a38.3 38.3 0 0 1-2.2-5.6c-4.2-14.9 2.8-30 15.6-33.6S91 38.3 95.2 53.2a38.4 38.4 0 0 1 1.1 5.9.5.5 0 0 0 .2.4c.1 0 .2.1.3 0l2.8-.7c.1-.1.3-.3.2-.5zm1.3 6.4a2 2 0 0 1 1.7 2.1L100.9 85a2.1 2.1 0 0 1-1.4 1.7h-.8l-5.3-.5a2.1 2.1 0 0 1-1.3-.7 2 2 0 0 1-.4-1.5l1.9-18.1a2 2 0 0 1 2.2-1.8zm-2.2 20.1l2-18.2-5.3-.6-2 18.2z"/><path fill="#746c59" d="M98.7 52.2a43.4 43.4 0 0 1 1.1 6.1c.1.2-.1.4-.2.5l-2.8.7c-.1.1-.2 0-.3 0a.5.5 0 0 1-.2-.4 38.4 38.4 0 0 0-1.1-5.9c-4.2-14.9-18-24.1-30.7-20.6S44.7 51.3 48.9 66.2a38.3 38.3 0 0 0 2.2 5.6v.4l-.2.3-2.8.7a.4.4 0 0 1-.5-.2 40.7 40.7 0 0 1-2.2-5.8c-4.7-17 3.3-34.2 18-38.3s30.5 6.3 35.3 23.3zm2.2 14.4l-2 18.2-5.3-.6 2-18.2 5.3.6zm-50.1 7.6a.9.9 0 0 0-1.3-.4 1 1 0 0 0-.5 1.3 19.4 19.4 0 0 0 2.4 3.9 1 1 0 0 0 1 .3c.2-.1.3-.1.4-.3a.9.9 0 0 0 .1-1.3 18.2 18.2 0 0 1-2.1-3.5z"/><path fill="#f9d99d" d="M66.5 70.6a6.2 6.2 0 0 0-9.8 7.6l7.9 10.3a6.2 6.2 0 0 0 8.7 1.1 6.1 6.1 0 0 0 1.1-8.6z"/><path fill="#746c59" d="M99.3 60.9a1 1 0 0 0-1.1-.8c-.6 0-.9.5-.9 1.1a17.8 17.8 0 0 1 .1 4 .9.9 0 0 0 .7 1.1h.5a1.1 1.1 0 0 0 .7-.8 18.3 18.3 0 0 0 0-4.6z"/><path fill="#f9d99d" d="M88.8 60.8a6.2 6.2 0 0 0-6.8 5.5l-1.3 12.9A6.2 6.2 0 0 0 93 80.5l1.4-12.9a6.3 6.3 0 0 0-5.6-6.8z"/></symbol></svg>