<svg xmlns="http://www.w3.org/2000/svg" width="256" height="256" viewBox="0 0 256 256"><path fill="#787878" d="M7.4 204.4c10 0 11.6-1.6 11.6-16.2V66.8c0-13.6-1.6-15.2-11.6-15.2v-3.2h46.2c15.6 0 33.8 10.2 33.8 41.8 0 37.3-20.7 44.1-37.2 44.6-5 .2-9.6-.2-11.2-.9v54.3c0 14.6 1.6 16.2 13.2 16.2v3.4H7.4zm41.4-73.2c12.3-.7 18.6-12.8 18.6-40.7 0-23.7-2-38.9-17.2-38.9h-2.8c-7.9 0-8.4 2.7-8.4 19.1v59.5a19.1 19.1 0 0 0 6.8 1zm110.9 73.2c10.5 0 11.6-2.1 11.6-18V67.3c0-14.3-1.1-15.7-11.6-15.7v-3.2h41.2c28.2 0 47 30.5 47 78.4s-17.5 81-47 81h-41.2zm66.2-76.4c0-37.1-3-76.4-26.4-76.4-7 0-8.2 2-8.2 16.4v119.5c0 15.3.7 16.9 8.2 16.9 23.6 0 26.4-38.2 26.4-76.4z"/><path fill="none" stroke="#ffec8d" stroke-linecap="round" stroke-miterlimit="10" stroke-width="3.92" d="M120.7 28.7v198.6"/><path fill="#ffec8d" d="M118.8 174.2s5.3-14.6-12.3-21.4c-3.9 20.3 12.3 21.4 12.3 21.4zm0-71.7s5.3-14.6-12.3-21.5c-3.9 20.4 12.3 21.5 12.3 21.5zm3.9 105.3s-5.3-14.7 12.3-21.5c3.9 20.3-12.3 21.5-12.3 21.5zm0-69.1s-5.3-14.6 12.3-21.4c3.9 20.3-12.3 21.4-12.3 21.4zm0-69s-5.3-14.6 12.3-21.5c3.9 20.4-12.3 21.5-12.3 21.5z"/></svg>