<svg id="Layer_1" data-name="Layer 1" xmlns="http://www.w3.org/2000/svg" width="128" height="128" viewBox="0 0 128 128"><title>logo-white</title><path d="M7.4,101.5c4.7,0,5.5-.8,5.5-7.6V36.6c0-6.5-.8-7.2-5.5-7.2V27.9H29.2c7.4,0,16,4.8,16,19.7,0,17.6-9.8,20.8-17.6,21.1a14,14,0,0,1-5.3-.5V93.9c0,6.8.8,7.6,6.3,7.6v1.6H7.4ZM26.9,66.9c5.8-.3,8.8-6,8.8-19.2,0-11.1-.9-18.3-8.1-18.3H26.3c-3.8,0-4,1.3-4,9V66.5a10.4,10.4,0,0,0,3.2.4Z" fill="#f3e7d0"/><path d="M79.3,101.5c4.9,0,5.5-1,5.5-8.5V36.8c0-6.8-.6-7.4-5.5-7.4V27.9H98.7c13.3,0,22.2,14.4,22.2,37s-8.2,38.2-22.2,38.2H79.3Zm31.2-36.1c0-17.5-1.4-36-12.4-36-3.3,0-3.9.9-3.9,7.7V93.6c0,7.1.4,7.9,3.9,7.9C109.3,101.5,110.5,83.5,110.5,65.4Z" fill="#f3e7d0"/><line x1="60.9" y1="18.6" x2="60.9" y2="112.3" fill="none" stroke="#feec8e" stroke-linecap="round" stroke-miterlimit="10" stroke-width="1.85"/><path d="M60,87.3s2.5-6.9-5.8-10.1C52.4,86.7,60,87.3,60,87.3Z" fill="#feec8e"/><path d="M60,53.4s2.5-6.9-5.8-10.1C52.4,52.9,60,53.4,60,53.4Z" fill="#feec8e"/><path d="M61.8,103.1S59.3,96.2,67.6,93C69.5,102.6,61.8,103.1,61.8,103.1Z" fill="#feec8e"/><path d="M61.8,70.5s-2.5-6.9,5.8-10.1C69.5,70,61.8,70.5,61.8,70.5Z" fill="#feec8e"/><path d="M61.8,37.9S59.3,31,67.6,27.8C69.5,37.4,61.8,37.9,61.8,37.9Z" fill="#feec8e"/></svg>