<svg xmlns="http://www.w3.org/2000/svg" width="64" height="64" viewBox="0 0 64 64"><path fill="#787878" d="M6.1 48.8c2.2 0 2.5-.4 2.5-3.5V19.2c0-2.9-.3-3.3-2.5-3.3v-.7h10c3.3 0 7.2 2.2 7.2 9s-4.4 9.5-8 9.6a5.2 5.2 0 0 1-2.4-.2v11.7c0 3.1.4 3.5 2.9 3.5v.7H6.1zM15 33c2.7-.1 4-2.7 4-8.7s-.4-8.4-3.7-8.4h-.6c-1.7 0-1.8.6-1.8 4.1v12.8a3.6 3.6 0 0 0 1.5.2zm23.9 15.8c2.2 0 2.5-.5 2.5-3.9V19.3c0-3.1-.3-3.4-2.5-3.4v-.7h8.8c6.1 0 10.2 6.6 10.2 16.9s-3.8 17.4-10.2 17.4h-8.8zm14.2-16.5c0-7.9-.6-16.4-5.6-16.4-1.6 0-1.8.5-1.8 3.5v25.8c0 3.2.1 3.6 1.8 3.6 5 0 5.6-8.2 5.6-16.5z"/><path fill="none" stroke="#ffec8d" stroke-linecap="round" stroke-miterlimit="10" stroke-width=".84" d="M30.5 11v42.7"/><path fill="#ffec8d" d="M30.1 42.3s1.1-3.1-2.7-4.6c-.8 4.4 2.7 4.6 2.7 4.6zm0-15.4s1.1-3.2-2.7-4.6c-.8 4.3 2.7 4.6 2.7 4.6zm.8 22.6s-1.1-3.1 2.7-4.6c.8 4.4-2.7 4.6-2.7 4.6zm0-14.8s-1.1-3.2 2.7-4.7c.8 4.4-2.7 4.7-2.7 4.7zm0-14.9s-1.1-3.1 2.7-4.6c.8 4.4-2.7 4.6-2.7 4.6z"/></svg>