<svg xmlns="http://www.w3.org/2000/svg"><symbol id="cs1-1" viewBox="0 0 429 300"><path fill="#81a9b2" d="M223 17h186v266H223z"/><path fill="#006188" d="M17 17h186v266H17z"/></symbol><symbol id="cs2-2" viewBox="0 0 837 390"><path d="M75.2 321.1h-2.8l-11.7-17.9h-.1c.1 2.1.2 4 .2 5.8v12.1h-2.3v-21.4h2.8L73 317.6h.1c0-.3 0-1.1-.1-2.5s-.1-2.5-.1-3.1v-12.3h2.3zm13.9 0l-.4-2.3h-.2a7.5 7.5 0 0 1-2.4 2.1 7.6 7.6 0 0 1-2.9.5 5.6 5.6 0 0 1-3.8-1.2 4.5 4.5 0 0 1-1.3-3.5c0-3.3 2.6-5 7.7-5.1h2.8v-1a4.3 4.3 0 0 0-.8-2.8 3.6 3.6 0 0 0-2.6-.9 10.9 10.9 0 0 0-4.6 1.2l-.7-1.8a10 10 0 0 1 2.6-1 9 9 0 0 1 2.8-.4 6.1 6.1 0 0 1 4.3 1.3c.9.8 1.3 2.2 1.3 4.1v10.9zm-5.4-1.7a4.8 4.8 0 0 0 3.5-1.2 4.6 4.6 0 0 0 1.3-3.5v-1.5h-2.4a9.7 9.7 0 0 0-4.2.9 2.8 2.8 0 0 0-1.3 2.5 2.5 2.5 0 0 0 .8 2 3.2 3.2 0 0 0 2.3.8zm21.7 1.7v-10.4a4.2 4.2 0 0 0-.9-2.9 3.5 3.5 0 0 0-2.7-1 4.5 4.5 0 0 0-3.7 1.4q-1.2 1.4-1.2 4.5v8.4h-2.4v-16h1.9l.4 2.2h.1a5.5 5.5 0 0 1 2.1-1.9 7.3 7.3 0 0 1 3-.6c2 0 3.4.4 4.4 1.4s1.5 2.4 1.5 4.5v10.4zm8.3-16v10.4a4.6 4.6 0 0 0 .8 2.9 3.6 3.6 0 0 0 2.8 1 4.5 4.5 0 0 0 3.7-1.4q1.2-1.3 1.2-4.5v-8.4h2.4v16h-2l-.3-2.1h-.2a4.9 4.9 0 0 1-2 1.8 7.5 7.5 0 0 1-3.1.6 6 6 0 0 1-4.4-1.4 6.1 6.1 0 0 1-1.4-4.4v-10.5zm35 16v-10.4a4 4 0 0 0-.8-2.9 3.2 3.2 0 0 0-2.5-1 4.2 4.2 0 0 0-3.4 1.4 6.2 6.2 0 0 0-1.1 4v8.9h-2.4v-10.4a4.6 4.6 0 0 0-.8-2.9 3.5 3.5 0 0 0-2.6-1 3.9 3.9 0 0 0-3.3 1.4 7.4 7.4 0 0 0-1.1 4.5v8.4h-2.4v-16h2l.4 2.2h.1a5 5 0 0 1 1.9-1.9 6.4 6.4 0 0 1 2.8-.6c2.5 0 4.2.9 4.9 2.7h.2a4.8 4.8 0 0 1 2-2 6.4 6.4 0 0 1 3.1-.7c1.9 0 3.2.4 4.1 1.4a6.2 6.2 0 0 1 1.4 4.5v10.4zm15.8-11.2h7.3v10.4a14.7 14.7 0 0 1-3.5.8 24.6 24.6 0 0 1-4.1.3 9.9 9.9 0 0 1-7.6-2.9q-2.7-2.8-2.7-8.1a11.8 11.8 0 0 1 1.4-5.8 9.5 9.5 0 0 1 3.8-3.9 12.5 12.5 0 0 1 5.9-1.3 15 15 0 0 1 6.4 1.3l-.9 2.2a13.4 13.4 0 0 0-5.6-1.3 7.8 7.8 0 0 0-6.1 2.4 8.7 8.7 0 0 0-2.2 6.4q0 4.4 2.1 6.6c1.4 1.5 3.5 2.2 6.2 2.2a16.5 16.5 0 0 0 4.4-.5v-6.6h-4.8zm24.4 3.2a9 9 0 0 1-2 6.1 6.8 6.8 0 0 1-5.5 2.2 7 7 0 0 1-3.8-1 6.7 6.7 0 0 1-2.6-2.9 9.9 9.9 0 0 1-.9-4.4 8.8 8.8 0 0 1 2-6.1 7.7 7.7 0 0 1 10.8 0 9 9 0 0 1 2 6.1zm-12.2 0a8 8 0 0 0 1.2 4.7 4.4 4.4 0 0 0 3.6 1.6 4.1 4.1 0 0 0 3.6-1.6 7.3 7.3 0 0 0 1.3-4.7 7.1 7.1 0 0 0-1.3-4.7 4.9 4.9 0 0 0-7.2 0 7.8 7.8 0 0 0-1.2 4.7zm20.1 6.3h1.3l.9-.2v1.8l-1.1.3h-1.4c-3.1 0-4.7-1.6-4.7-4.9V307h-2.3v-1.2l2.3-1 1-3.4h1.5v3.7h4.6v1.9h-4.6v9.4a3.4 3.4 0 0 0 .6 2.2 2.2 2.2 0 0 0 1.9.8zm14.9 1.7v-10.4a4.2 4.2 0 0 0-.9-2.9 3.8 3.8 0 0 0-2.8-1 4.7 4.7 0 0 0-3.7 1.4 7.4 7.4 0 0 0-1.1 4.5v8.4h-2.5v-22.8h2.5v6.9c0 .9-.1 1.6-.1 2.1h.1a4.9 4.9 0 0 1 2-1.8 6.2 6.2 0 0 1 3.1-.7 6.4 6.4 0 0 1 4.4 1.4q1.5 1.4 1.5 4.5v10.4zm5.7-20.4a1.7 1.7 0 0 1 .5-1.2 1.2 1.2 0 0 1 1-.4 1.3 1.3 0 0 1 1 .4 1.6 1.6 0 0 1 .4 1.2c0 .6-.1 1-.4 1.2a1.3 1.3 0 0 1-1 .4 1.2 1.2 0 0 1-1-.4 1.4 1.4 0 0 1-.5-1.2zm2.7 20.4h-2.4v-16h2.4zm10.1.3a6.7 6.7 0 0 1-5.4-2.1 10.5 10.5 0 0 1 0-12.3 6.8 6.8 0 0 1 5.5-2.2l2.3.2 1.8.6-.7 2.1-1.8-.6-1.6-.2c-3.3 0-4.9 2.1-4.9 6.3a7.3 7.3 0 0 0 1.2 4.5 3.9 3.9 0 0 0 3.5 1.6 10.5 10.5 0 0 0 4.1-.9v2.2a9.5 9.5 0 0 1-4 .8zm11.3-7.2V312h7.2v2.2zm18.6-2v8.9h-2.5v-21.4h5.9c2.6 0 4.6.5 5.8 1.5a5.4 5.4 0 0 1 1.9 4.6c0 2.8-1.4 4.7-4.3 5.7l5.8 9.6h-2.9l-5.2-8.9zm0-2.1h3.4a5.9 5.9 0 0 0 3.9-1.1 4.6 4.6 0 0 0 0-6.2 7.2 7.2 0 0 0-4-.9h-3.3zm21 11.3a7.3 7.3 0 0 1-5.6-2.1 8.5 8.5 0 0 1-2.1-6.1 8.9 8.9 0 0 1 1.9-6.1 6.2 6.2 0 0 1 5.2-2.3 5.6 5.6 0 0 1 4.7 2 7.3 7.3 0 0 1 1.8 5.2v1.5h-11.1a6.5 6.5 0 0 0 1.5 4.3 4.8 4.8 0 0 0 3.8 1.5 13.4 13.4 0 0 0 5.1-1.1v2.2a16.8 16.8 0 0 1-2.4.8zm-.7-14.6a3.9 3.9 0 0 0-3.1 1.3 5.9 5.9 0 0 0-1.3 3.5h8.4a6.2 6.2 0 0 0-1-3.6 3.8 3.8 0 0 0-3-1.2zm22.4-1.7v1.5l-3 .4a4 4 0 0 1 .7 1.3 4.1 4.1 0 0 1 .4 1.9 4.7 4.7 0 0 1-1.7 3.7 6 6 0 0 1-4.4 1.4h-1.3c-1.1.6-1.6 1.3-1.6 2.1a1.1 1.1 0 0 0 .6 1 3.6 3.6 0 0 0 1.8.3h2.9a6.1 6.1 0 0 1 4 1.1 3.9 3.9 0 0 1 1.4 3.2 4.4 4.4 0 0 1-2.2 4c-1.4 1-3.5 1.4-6.2 1.4a9.6 9.6 0 0 1-4.9-1.1 3.9 3.9 0 0 1-1.7-3.3 3.5 3.5 0 0 1 1-2.6 4.4 4.4 0 0 1 2.6-1.4 2.2 2.2 0 0 1-1-.9 2.1 2.1 0 0 1-.4-1.4 2.6 2.6 0 0 1 .4-1.5 5 5 0 0 1 1.5-1.3 4.1 4.1 0 0 1-2-1.7 5.4 5.4 0 0 1-.8-2.8 5.1 5.1 0 0 1 1.6-4.1 6.5 6.5 0 0 1 4.5-1.4 7.3 7.3 0 0 1 2.2.3zM290 323.8a2 2 0 0 0 1.1 2 5.5 5.5 0 0 0 3.1.7 9.1 9.1 0 0 0 4.6-.9 3.1 3.1 0 0 0 1.4-2.5c0-.9-.2-1.5-.8-1.8s-1.5-.5-3-.5h-2.9a3.5 3.5 0 0 0-2.6.8 2.7 2.7 0 0 0-.9 2.2zm1.3-13.6a3.6 3.6 0 0 0 .9 2.6 4.6 4.6 0 0 0 2.7.8c2.4 0 3.6-1.1 3.6-3.4s-1.2-3.6-3.6-3.6a3.2 3.2 0 0 0-3.6 3.6zm15.6-5.1v10.4a4 4 0 0 0 .9 2.9 3.2 3.2 0 0 0 2.7 1 4.5 4.5 0 0 0 3.7-1.4q1.2-1.3 1.2-4.5v-8.4h2.4v16h-2l-.3-2.1h-.2a4.9 4.9 0 0 1-2 1.8 7.5 7.5 0 0 1-3.1.6c-1.9 0-3.4-.4-4.3-1.4a5.7 5.7 0 0 1-1.5-4.4v-10.5zm17 16h-2.4v-22.8h2.4zm13.5 0l-.4-2.3h-.2a5.4 5.4 0 0 1-5.3 2.6 5.6 5.6 0 0 1-3.8-1.2 4.5 4.5 0 0 1-1.3-3.5q0-4.9 7.8-5.1h2.7v-1a4.3 4.3 0 0 0-.8-2.8 3.4 3.4 0 0 0-2.6-.9 10.9 10.9 0 0 0-4.6 1.2l-.7-1.8a10 10 0 0 1 2.6-1 9 9 0 0 1 2.8-.4 6.1 6.1 0 0 1 4.3 1.3c.9.8 1.3 2.2 1.3 4.1v10.9zm-5.4-1.7a4.8 4.8 0 0 0 3.5-1.2 4.6 4.6 0 0 0 1.3-3.5v-1.5h-2.4a10.1 10.1 0 0 0-4.2.9 2.8 2.8 0 0 0-1.3 2.5 2.5 2.5 0 0 0 .8 2 3.3 3.3 0 0 0 2.3.8zm18.1-14.6a5.8 5.8 0 0 1 1.9.2l-.3 2.2-1.8-.2a4.1 4.1 0 0 0-3.3 1.6 5.6 5.6 0 0 0-1.4 3.9v8.6h-2.4v-16h2l.2 2.9h.2a8.3 8.3 0 0 1 2.1-2.4 5.7 5.7 0 0 1 2.8-.8zm176.6 5.6a12.1 12.1 0 0 1-2.6 8.1 9.2 9.2 0 0 1-7.2 2.9c-3.2 0-5.6-.9-7.3-2.9s-2.6-4.6-2.6-8.1.9-6.2 2.6-8.1 4.1-2.9 7.3-2.9a9.2 9.2 0 0 1 7.2 2.9 12.1 12.1 0 0 1 2.6 8.1zm-17.1 0a10.4 10.4 0 0 0 1.9 6.6 6.5 6.5 0 0 0 5.4 2.2 6.6 6.6 0 0 0 5.4-2.2q1.8-2.2 1.8-6.6t-1.8-6.6a7.6 7.6 0 0 0-10.8.1 10.1 10.1 0 0 0-1.9 6.5zm27.5 11a6.8 6.8 0 0 1-2.9-.6 4.3 4.3 0 0 1-2.1-1.7h-.2a24.6 24.6 0 0 1 .2 2.6v6.6h-2.5v-23.2h2l.3 2.2h.2a5.4 5.4 0 0 1 2.1-1.9 6.8 6.8 0 0 1 2.9-.6 5.7 5.7 0 0 1 4.9 2.2 11.2 11.2 0 0 1 0 12.2 5.9 5.9 0 0 1-4.9 2.2zm-.4-14.6a4.2 4.2 0 0 0-3.5 1.4c-.8.9-1.1 2.4-1.1 4.3v.6c0 2.2.3 3.9 1.1 4.8a4.1 4.1 0 0 0 3.6 1.5 3.9 3.9 0 0 0 3.3-1.7 8.7 8.7 0 0 0 1.1-4.6 8.2 8.2 0 0 0-1.1-4.6 4 4 0 0 0-3.4-1.7zm16.6 14.6a7.3 7.3 0 0 1-5.6-2.1 8.5 8.5 0 0 1-2.1-6.1 8.9 8.9 0 0 1 1.9-6.1 6.2 6.2 0 0 1 5.2-2.3 5.6 5.6 0 0 1 4.7 2 7.3 7.3 0 0 1 1.8 5.2v1.5h-11.1a6.5 6.5 0 0 0 1.5 4.3 4.8 4.8 0 0 0 3.8 1.5 13.4 13.4 0 0 0 5.1-1.1v2.2a16.8 16.8 0 0 1-2.4.8zm-.7-14.6a3.9 3.9 0 0 0-3.1 1.3 5.9 5.9 0 0 0-1.3 3.5h8.4a6.2 6.2 0 0 0-1-3.6 3.8 3.8 0 0 0-3-1.2zm20.2 14.3v-10.4a4.2 4.2 0 0 0-.9-2.9 3.8 3.8 0 0 0-2.8-1 4.8 4.8 0 0 0-3.7 1.4 7.4 7.4 0 0 0-1.1 4.5v8.4h-2.5v-16h2l.4 2.2h.1a5.5 5.5 0 0 1 2.1-1.9 7.3 7.3 0 0 1 3-.6c2 0 3.4.4 4.4 1.4s1.5 2.4 1.5 4.5v10.4zm24.7-5.7a5.1 5.1 0 0 1-2.1 4.4 8.4 8.4 0 0 1-5.5 1.6 13.3 13.3 0 0 1-5.9-1V318a14 14 0 0 0 2.9.9 15.5 15.5 0 0 0 3.1.3 6.3 6.3 0 0 0 3.7-.9 2.9 2.9 0 0 0 1.3-2.6 3.6 3.6 0 0 0-.5-1.9 5 5 0 0 0-1.5-1.3 18.6 18.6 0 0 0-3.2-1.3 9.8 9.8 0 0 1-4.2-2.6 5.2 5.2 0 0 1-1.3-3.8 4.5 4.5 0 0 1 1.9-3.9 7.4 7.4 0 0 1 4.9-1.5 14.5 14.5 0 0 1 5.9 1.2l-.8 2.1a14.3 14.3 0 0 0-5.2-1.1 5 5 0 0 0-3.1.9 2.7 2.7 0 0 0-1.1 2.3 4.9 4.9 0 0 0 .4 1.9 6 6 0 0 0 1.4 1.3l3 1.3c2.2.8 3.8 1.6 4.6 2.6a4.8 4.8 0 0 1 1.3 3.5zm12.4 5.7l-.5-2.3h-.1a7.5 7.5 0 0 1-2.4 2.1 8.5 8.5 0 0 1-3 .5 5.3 5.3 0 0 1-3.7-1.2 4.5 4.5 0 0 1-1.4-3.5q0-4.9 7.8-5.1h2.7v-1a4.3 4.3 0 0 0-.8-2.8 3.3 3.3 0 0 0-2.6-.9 10.5 10.5 0 0 0-4.5 1.2l-.8-1.8a11.7 11.7 0 0 1 2.6-1 9.5 9.5 0 0 1 2.8-.4c2 0 3.4.4 4.3 1.3a5.3 5.3 0 0 1 1.4 4.1v10.9zm-5.5-1.7a5.2 5.2 0 0 0 3.6-1.2 5 5 0 0 0 1.2-3.5v-1.5h-2.4a10.1 10.1 0 0 0-4.2.9 2.9 2.9 0 0 0-1.2 2.5 2.2 2.2 0 0 0 .8 2 2.9 2.9 0 0 0 2.2.8zm21.8 1.7v-10.4a4.2 4.2 0 0 0-.9-2.9 3.8 3.8 0 0 0-2.8-1 4.7 4.7 0 0 0-3.7 1.4q-1.2 1.4-1.2 4.5v8.4h-2.4v-16h2l.4 2.2h.1a5.5 5.5 0 0 1 2.1-1.9 7.3 7.3 0 0 1 3-.6c1.9 0 3.4.4 4.3 1.4s1.5 2.4 1.5 4.5v10.4zm16.3-4.4a4.1 4.1 0 0 1-1.7 3.5 8 8 0 0 1-4.7 1.2 10.1 10.1 0 0 1-5-1v-2.2a18.4 18.4 0 0 0 2.5.9 11.5 11.5 0 0 0 2.6.3 6 6 0 0 0 2.9-.6 1.9 1.9 0 0 0 1-1.8 2.3 2.3 0 0 0-.8-1.7 13.9 13.9 0 0 0-3.2-1.5 25.5 25.5 0 0 1-3.2-1.5 4.7 4.7 0 0 1-1.4-1.4 3.8 3.8 0 0 1-.4-1.9 3.6 3.6 0 0 1 1.6-3.1 7.7 7.7 0 0 1 4.4-1.1 12.4 12.4 0 0 1 5 1l-.8 2a11.4 11.4 0 0 0-4.4-1 4.5 4.5 0 0 0-2.6.6 1.6 1.6 0 0 0-.9 1.5 2.3 2.3 0 0 0 .3 1.1 3.5 3.5 0 0 0 1.1.8l2.8 1.2a11.2 11.2 0 0 1 3.9 2.1 4 4 0 0 1 1 2.6zm7.4-2.5V312h7.2v2.2zm18.6-2v8.9H666v-21.4h5.9c2.6 0 4.6.5 5.8 1.5a5.4 5.4 0 0 1 1.9 4.6c0 2.8-1.4 4.7-4.3 5.7l5.8 9.6h-2.9l-5.2-8.9zm0-2.1h3.4a5.9 5.9 0 0 0 3.9-1.1 4.6 4.6 0 0 0 0-6.2 7.3 7.3 0 0 0-4.1-.9h-3.2zm21 11.3a7.3 7.3 0 0 1-5.6-2.1 8.5 8.5 0 0 1-2.1-6.1 8.9 8.9 0 0 1 1.9-6.1 6.2 6.2 0 0 1 5.2-2.3 5.6 5.6 0 0 1 4.7 2 7.3 7.3 0 0 1 1.8 5.2v1.5h-11.1a6.5 6.5 0 0 0 1.5 4.3 4.8 4.8 0 0 0 3.8 1.5 13.4 13.4 0 0 0 5.1-1.1v2.2a16.8 16.8 0 0 1-2.4.8zm-.7-14.6a3.9 3.9 0 0 0-3.1 1.3 5.9 5.9 0 0 0-1.3 3.5h8.4a6.2 6.2 0 0 0-1-3.6 3.8 3.8 0 0 0-3-1.2zm22.4-1.7v1.5l-3 .4a4 4 0 0 1 .7 1.3 5.8 5.8 0 0 1 .4 1.9 4.7 4.7 0 0 1-1.7 3.7 6 6 0 0 1-4.4 1.4h-1.3c-1.1.6-1.6 1.3-1.6 2.1a1.1 1.1 0 0 0 .6 1 3.6 3.6 0 0 0 1.8.3h2.9a6.1 6.1 0 0 1 4 1.1 3.9 3.9 0 0 1 1.4 3.2 4.4 4.4 0 0 1-2.2 4c-1.4 1-3.5 1.4-6.2 1.4a9.6 9.6 0 0 1-4.9-1.1 3.9 3.9 0 0 1-1.7-3.3 3.5 3.5 0 0 1 1-2.6 4.4 4.4 0 0 1 2.6-1.4 2.9 2.9 0 0 1-1.5-2.3 2.7 2.7 0 0 1 .5-1.5 5 5 0 0 1 1.5-1.3 4.1 4.1 0 0 1-2-1.7 4.6 4.6 0 0 1-.8-2.8 5.1 5.1 0 0 1 1.6-4.1 6.4 6.4 0 0 1 4.4-1.4 8 8 0 0 1 2.3.3zm-12.8 18.7a2 2 0 0 0 1.1 2 5.3 5.3 0 0 0 3.1.7 9.1 9.1 0 0 0 4.6-.9 3.1 3.1 0 0 0 1.4-2.5c0-.9-.2-1.5-.8-1.8s-1.5-.5-3-.5h-2.9a3.5 3.5 0 0 0-2.6.8 2.7 2.7 0 0 0-.9 2.2zm1.3-13.6a3.6 3.6 0 0 0 .9 2.6 4.6 4.6 0 0 0 2.7.8c2.4 0 3.5-1.1 3.5-3.4s-1.2-3.6-3.6-3.6a3.6 3.6 0 0 0-2.6.9 3.7 3.7 0 0 0-.9 2.7zm15.6-5.1v10.4a4 4 0 0 0 .8 2.9 3.6 3.6 0 0 0 2.8 1 4.5 4.5 0 0 0 3.7-1.4q1.2-1.3 1.2-4.5v-8.4h2.4v16h-2l-.3-2.1h-.2a4.9 4.9 0 0 1-2 1.8 7.5 7.5 0 0 1-3.1.6 6 6 0 0 1-4.4-1.4 6.1 6.1 0 0 1-1.4-4.4v-10.5zm17 16h-2.4v-22.8h2.4zm13.5 0l-.4-2.3h-.2a7.5 7.5 0 0 1-2.4 2.1 7.9 7.9 0 0 1-2.9.5 5.6 5.6 0 0 1-3.8-1.2 4.5 4.5 0 0 1-1.3-3.5c0-3.3 2.6-5 7.7-5.1h2.8v-1a4.3 4.3 0 0 0-.8-2.8 3.6 3.6 0 0 0-2.6-.9 10.9 10.9 0 0 0-4.6 1.2l-.7-1.8a10 10 0 0 1 2.6-1 9 9 0 0 1 2.8-.4 6.1 6.1 0 0 1 4.3 1.3c.9.8 1.3 2.2 1.3 4.1v10.9zm-5.5-1.7a5.1 5.1 0 0 0 3.6-1.2 4.6 4.6 0 0 0 1.3-3.5v-1.5h-2.4a9.7 9.7 0 0 0-4.2.9 2.8 2.8 0 0 0-1.3 2.5 2.5 2.5 0 0 0 .8 2 3.1 3.1 0 0 0 2.2.8zm18.2-14.6a5.8 5.8 0 0 1 1.9.2l-.3 2.2-1.8-.2a4.1 4.1 0 0 0-3.3 1.6 5.2 5.2 0 0 0-1.4 3.9v8.6h-2.4v-16h2l.2 2.9h.2a8.3 8.3 0 0 1 2.1-2.4 5.4 5.4 0 0 1 2.8-.8zm-146.9-76.5l-22.2-56.7h-71.6l-21.9 56.7h-21l70.5-179.2h17.5l70.2 179.2zm-28.7-75.4l-20.7-55.3c-2.7-7-5.5-15.6-8.3-25.8a246.1 246.1 0 0 1-7.7 25.8l-21 55.3zm172.9 75.4l-4-19h-1c-6.6 8.4-13.3 14-19.9 17s-14.9 4.5-24.9 4.5c-13.2 0-23.6-3.4-31.2-10.3s-11.2-16.5-11.2-29.2q0-40.5 64.8-42.4l22.7-.8v-8.3c0-10.5-2.3-18.2-6.8-23.2s-11.7-7.5-21.7-7.5-23.7 3.4-37.8 10.2l-6.2-15.5a93.3 93.3 0 0 1 21.6-8.4 96.4 96.4 0 0 1 23.7-3.1c15.9 0 27.7 3.6 35.4 10.7s11.6 18.4 11.6 34v91.3zM710.1 214c12.6 0 22.5-3.4 29.7-10.3s10.8-16.6 10.8-29.1v-12.1l-20.3.9q-24.1.9-34.8 7.5c-7.1 4.4-10.7 11.3-10.7 20.7 0 7.3 2.2 12.9 6.6 16.7s10.7 5.7 18.7 5.7zm-496.6 15.9q1.2 3.3-2.1 3.3h-11.3a6 6 0 0 1-2.4-.5c-.7-.3-1.4-1.3-2-2.8l-17.4-43.3H89.9l-8.7 21.6c-2.8 7.1-5.6 14.3-8.4 21.7-.7 1.5-1.3 2.5-2 2.8a6.6 6.6 0 0 1-2.5.5H57.2q-3.3 0-2.1-3.3l69.1-168.3a4.2 4.2 0 0 1 4.2-2.8h14.4a4.2 4.2 0 0 1 4.2 2.8zm-40.9-58.3q-9.9-24.4-18.9-48.3T134.8 75c-6.6 16.3-13 32.4-19.4 48.3s-12.8 32-19.4 48.3zm86.3-45.8a3.2 3.2 0 0 1-2.3.3 1.4 1.4 0 0 1-1-1.5v-8.9a5.4 5.4 0 0 1 3.3-5 59.9 59.9 0 0 1 17.5-6.2 106.5 106.5 0 0 1 20.3-1.8c15.7 0 27.1 3.8 34.3 11.2s10.8 18.7 10.8 33.7v59q0 7.1.3 12.6c.1 3.7.4 7.2.7 10.7s-1.1 3.3-3.3 3.3H331q-3.3 0-3.3-3.3v-18.1a37.1 37.1 0 0 1-16.5 18.5 50.6 50.6 0 0 1-25.3 6.6c-15.8 0-27.4-4.6-34.8-13.9a30.5 30.5 0 0 1-5.6-10.9 40.4 40.4 0 0 1-1.9-12.3c0-9.6 2.2-17.8 6.7-24.7s11.3-12.1 20.6-15.5c11.2-4.1 28.5-6.1 51.9-6.1h3v-7.1c0-9.8-2.2-17.4-6.7-22.5s-11.9-7.8-22.4-7.8a86.3 86.3 0 0 0-20 2.3 57.5 57.5 0 0 0-17.8 7.4zm66.9 41.1h-4.4a131.9 131.9 0 0 0-23.4 1 82.6 82.6 0 0 0-17 4.2c-6.6 2.3-11.6 5.8-14.8 10.4a27.9 27.9 0 0 0-5 16.6 30.1 30.1 0 0 0 1.9 10.9 16.4 16.4 0 0 0 5.9 7.9c4.7 3.7 10.9 5.6 18.8 5.6a34.8 34.8 0 0 0 27.2-12.7 41.8 41.8 0 0 0 8-15.1 69.8 69.8 0 0 0 2.8-20.8z"/></symbol><symbol id="cs3-1" viewBox="0 0 638 303"><path fill="#00688b" d="M20 20h84v266H20z"/><path fill="#008ab1" d="M122 20h84v266h-84z"/><path fill="#7cccbd" d="M226 20h84v266h-84z"/><path fill="#d3df44" d="M330 20h84v266h-84z"/><path fill="#df6420" d="M434 20h84v266h-84z"/><path fill="#675a53" d="M538 20h84v266h-84z"/></symbol><symbol id="cs3-2" viewBox="0 0 837 390"><path d="M101.5 321.1l-2.7-6.8h-8.6l-2.6 6.8H85l8.5-21.5h2.1l8.4 21.5zm-3.5-9l-2.5-6.7c-.3-.8-.6-1.8-1-3.1a21.2 21.2 0 0 1-.9 3.1l-2.5 6.7zm14.4-7.3a6.5 6.5 0 0 1 2 .2l-.4 2.2-1.7-.2a4.3 4.3 0 0 0-3.4 1.6 5.6 5.6 0 0 0-1.4 3.9v8.6h-2.4v-16h2l.3 2.9h.1a7.3 7.3 0 0 1 2.2-2.4 5 5 0 0 1 2.7-.8zm3.3-4.1a1.6 1.6 0 0 1 .4-1.2 1.2 1.2 0 0 1 1-.4 1.3 1.3 0 0 1 1 .4 1.6 1.6 0 0 1 .4 1.2c0 .6-.1 1-.4 1.2a1.3 1.3 0 0 1-1 .4 1.2 1.2 0 0 1-1-.4c-.3-.2-.4-.6-.4-1.2zm2.6 20.4h-2.4v-16h2.4zm13.5 0l-.5-2.3h-.1a7.5 7.5 0 0 1-2.4 2.1 8.5 8.5 0 0 1-3 .5 5.3 5.3 0 0 1-3.7-1.2 4.5 4.5 0 0 1-1.4-3.5q0-4.9 7.8-5.1h2.7v-1a3.8 3.8 0 0 0-.8-2.8 3.3 3.3 0 0 0-2.6-.9 10.8 10.8 0 0 0-4.5 1.2l-.8-1.8a11.7 11.7 0 0 1 2.6-1 9.7 9.7 0 0 1 2.9-.4 5.7 5.7 0 0 1 4.2 1.3c1 .8 1.4 2.2 1.4 4.1v10.9zm-5.5-1.7a5.2 5.2 0 0 0 3.6-1.2 4.6 4.6 0 0 0 1.3-3.5v-1.5h-2.4a9.4 9.4 0 0 0-4.2.9 2.8 2.8 0 0 0-1.3 2.5 2.5 2.5 0 0 0 .8 2 3.1 3.1 0 0 0 2.2.8zm13.3 1.7h-2.5v-22.8h2.5zm27 0h-2.8l-11.7-17.9h-.2c.2 2.1.3 4 .3 5.8v12.1h-2.3v-21.4h2.8l11.7 17.9h.1c0-.3-.1-1.1-.2-2.5v-15.4h2.3zm13.9 0l-.5-2.3h-.1a7.5 7.5 0 0 1-2.4 2.1 8.5 8.5 0 0 1-3 .5 5.3 5.3 0 0 1-3.7-1.2 4.5 4.5 0 0 1-1.4-3.5q0-4.9 7.8-5.1h2.7v-1a3.8 3.8 0 0 0-.8-2.8 3.3 3.3 0 0 0-2.6-.9 10.8 10.8 0 0 0-4.5 1.1l-.8-1.8a11.7 11.7 0 0 1 2.6-1 9.7 9.7 0 0 1 2.9-.4 5.7 5.7 0 0 1 4.2 1.3 5.3 5.3 0 0 1 1.4 4.1v10.9zm-5.5-1.7a5.2 5.2 0 0 0 3.6-1.2 5 5 0 0 0 1.3-3.5v-1.5h-2.5a9.2 9.2 0 0 0-4.1.9 2.8 2.8 0 0 0-1.3 2.5 2.2 2.2 0 0 0 .8 2 3.1 3.1 0 0 0 2.2.8zm18.1-14.6a6.5 6.5 0 0 1 2 .2l-.4 2.2-1.7-.2a4.4 4.4 0 0 0-3.4 1.6 5.6 5.6 0 0 0-1.4 3.9v8.6h-2.4v-16h2l.3 2.9h.1a7.3 7.3 0 0 1 2.2-2.4 5 5 0 0 1 2.7-.8zm10.8 0a5.8 5.8 0 0 1 1.9.2l-.3 2.2-1.8-.2a4.1 4.1 0 0 0-3.3 1.6 5.6 5.6 0 0 0-1.4 3.9v8.6h-2.4v-16h2l.2 2.9h.2a8.3 8.3 0 0 1 2.1-2.4 5.7 5.7 0 0 1 2.8-.8zm17.3 8.3a9 9 0 0 1-2 6.1 7.9 7.9 0 0 1-9.3 1.2 6.7 6.7 0 0 1-2.6-2.9 9.9 9.9 0 0 1-.9-4.4 8.8 8.8 0 0 1 2-6.1 7.7 7.7 0 0 1 10.8 0 9 9 0 0 1 2 6.1zm-12.3 0a7.3 7.3 0 0 0 1.3 4.7 4.4 4.4 0 0 0 3.6 1.6 4.1 4.1 0 0 0 3.6-1.6 8 8 0 0 0 1.2-4.7 7.8 7.8 0 0 0-1.2-4.7 4.4 4.4 0 0 0-3.6-1.6 4.7 4.7 0 0 0-3.7 1.6 7.8 7.8 0 0 0-1.2 4.7zm28.1 8l-2.9-9.4c-.2-.6-.5-1.9-1-3.9h-.2c-.4 1.7-.7 3-1 3.9l-3 9.4h-2.8l-4.4-16h2.5c1.1 4 1.9 7.1 2.4 9.2a27.3 27.3 0 0 1 .9 4.3h.1c.2-.6.3-1.3.6-2.2a14.2 14.2 0 0 1 .6-2.1l2.9-9.2h2.7l2.8 9.2a28.6 28.6 0 0 1 1.2 4.2h.1a6.9 6.9 0 0 1 .3-1.6l3-11.8h2.6l-4.5 16zm13.7-6.9V312h7.2v2.2zm16.2-14.5h6c2.9 0 4.9.4 6.2 1.3a4.4 4.4 0 0 1 1.9 4 5 5 0 0 1-1.1 3.2 5.4 5.4 0 0 1-3.1 1.6c3.3.6 4.9 2.3 4.9 5.1a5.5 5.5 0 0 1-1.9 4.5 8.2 8.2 0 0 1-5.5 1.6h-7.4zm2.5 9.2h4.1a7.4 7.4 0 0 0 3.8-.8 3.5 3.5 0 0 0 1.1-2.8 2.7 2.7 0 0 0-1.3-2.6c-.8-.6-2.2-.8-4.1-.8h-3.6zm0 2.1v8h4.4a5.9 5.9 0 0 0 3.9-1 3.6 3.6 0 0 0 1.3-3.1 3.4 3.4 0 0 0-1.3-3 7.6 7.6 0 0 0-4.1-.9zm28.9 2.1a9 9 0 0 1-2 6.1 6.7 6.7 0 0 1-5.4 2.2 7.1 7.1 0 0 1-3.9-1 6.5 6.5 0 0 1-2.5-2.9 8.7 8.7 0 0 1-1-4.4 8.8 8.8 0 0 1 2-6.1 6.8 6.8 0 0 1 5.5-2.2 6.7 6.7 0 0 1 5.3 2.2 9 9 0 0 1 2 6.1zm-12.2 0a8 8 0 0 0 1.2 4.7 4.4 4.4 0 0 0 3.6 1.6 4.1 4.1 0 0 0 3.6-1.6 7.3 7.3 0 0 0 1.3-4.7 7.1 7.1 0 0 0-1.3-4.7 4.8 4.8 0 0 0-7.2 0 7.8 7.8 0 0 0-1.2 4.7zm17.4 8h-2.4v-22.8h2.4zm14.6-2.1h-.2a5.7 5.7 0 0 1-5 2.4 6.1 6.1 0 0 1-4.9-2.1c-1.2-1.5-1.7-3.5-1.7-6.2s.5-4.7 1.7-6.1a5.9 5.9 0 0 1 4.9-2.2 5.7 5.7 0 0 1 5 2.4h.2v-8.9h2.5v22.8h-2zm-4.9.4a4.3 4.3 0 0 0 3.6-1.4c.8-.9 1.1-2.3 1.1-4.3v-.6c0-2.2-.3-3.9-1.1-4.8a4.3 4.3 0 0 0-3.6-1.5 3.9 3.9 0 0 0-3.3 1.7 8 8 0 0 0-1.1 4.7 7.5 7.5 0 0 0 1.1 4.6 3.8 3.8 0 0 0 3.3 1.6zm249.2 1.7l-2.7-6.8h-8.6l-2.6 6.8H546l8.4-21.5h2.1l8.4 21.5zm-3.5-9l-2.5-6.7c-.3-.8-.6-1.8-1-3.1a21.2 21.2 0 0 1-.9 3.1l-2.5 6.7zm14.4-7.3a6.2 6.2 0 0 1 2 .2l-.4 2.2-1.7-.2a4.4 4.4 0 0 0-3.4 1.6 5.6 5.6 0 0 0-1.3 3.9v8.6H566v-16h2l.3 2.9h.1a7.3 7.3 0 0 1 2.2-2.4 5 5 0 0 1 2.7-.8zm3.3-4.1a1.6 1.6 0 0 1 .4-1.2 1.2 1.2 0 0 1 1-.4 1.3 1.3 0 0 1 1 .4 1.6 1.6 0 0 1 .4 1.2c0 .6-.1 1-.4 1.2a1.3 1.3 0 0 1-1 .4 1.2 1.2 0 0 1-1-.4c-.3-.2-.4-.6-.4-1.2zm2.6 20.4h-2.4v-16h2.4zm13.5 0l-.5-2.3h-.1a7.5 7.5 0 0 1-2.4 2.1 8.4 8.4 0 0 1-2.9.5 5.6 5.6 0 0 1-3.8-1.2 4.5 4.5 0 0 1-1.3-3.5c0-3.3 2.6-5 7.7-5.1h2.8v-1a3.8 3.8 0 0 0-.9-2.8 3.3 3.3 0 0 0-2.6-.9 10.8 10.8 0 0 0-4.5 1.2l-.7-1.8a10 10 0 0 1 2.6-1 8.6 8.6 0 0 1 2.8-.4 6.1 6.1 0 0 1 4.3 1.3c.9.8 1.3 2.2 1.3 4.1v10.9zm-5.5-1.7a5.1 5.1 0 0 0 3.6-1.2 4.6 4.6 0 0 0 1.3-3.5v-1.5h-2.4a9.4 9.4 0 0 0-4.2.9 2.8 2.8 0 0 0-1.3 2.5 2.5 2.5 0 0 0 .8 2 3.1 3.1 0 0 0 2.2.8zm13.3 1.7H598v-22.8h2.5zm8.6-6.9V312h7.2v2.2zm18.6-2v8.9h-2.5v-21.4h5.9c2.6 0 4.6.5 5.8 1.5a5.4 5.4 0 0 1 1.9 4.6c0 2.8-1.4 4.7-4.3 5.7l5.8 9.6h-2.9l-5.2-8.9zm0-2.1h3.4a5.9 5.9 0 0 0 3.9-1.1 4.6 4.6 0 0 0 0-6.2 7 7 0 0 0-4-.9h-3.3zm21 11.3a7.5 7.5 0 0 1-5.6-2.1 8.5 8.5 0 0 1-2.1-6.1 9.5 9.5 0 0 1 1.9-6.1 6.2 6.2 0 0 1 5.2-2.3 5.6 5.6 0 0 1 4.7 2 7.3 7.3 0 0 1 1.8 5.2v1.5h-11.1a6.5 6.5 0 0 0 1.5 4.3 4.8 4.8 0 0 0 3.8 1.5 13.4 13.4 0 0 0 5.1-1.1v2.2a13.5 13.5 0 0 1-2.4.8zm-.7-14.6a3.7 3.7 0 0 0-3 1.3 5.3 5.3 0 0 0-1.4 3.5h8.4a5.5 5.5 0 0 0-1-3.6 3.8 3.8 0 0 0-3-1.2zm22.4-1.7v1.5l-3 .4a4 4 0 0 1 .7 1.3 4.1 4.1 0 0 1 .4 1.9 4.9 4.9 0 0 1-1.6 3.7 6.4 6.4 0 0 1-4.5 1.4h-1.3c-1 .6-1.6 1.3-1.6 2.1a1.1 1.1 0 0 0 .6 1 3.9 3.9 0 0 0 1.8.3h2.9a6 6 0 0 1 4 1.1 3.9 3.9 0 0 1 1.4 3.2 4.4 4.4 0 0 1-2.2 4c-1.4 1-3.5 1.4-6.2 1.4a9.6 9.6 0 0 1-4.9-1.1 3.9 3.9 0 0 1-1.7-3.3 4 4 0 0 1 1-2.6 4.4 4.4 0 0 1 2.6-1.4 2.8 2.8 0 0 1-1-.9 2.1 2.1 0 0 1-.4-1.4 2.6 2.6 0 0 1 .4-1.5 5 5 0 0 1 1.5-1.3 4.1 4.1 0 0 1-2-1.7 5.4 5.4 0 0 1-.8-2.8 5.1 5.1 0 0 1 1.6-4.1 6.5 6.5 0 0 1 4.5-1.4 7.3 7.3 0 0 1 2.2.3zm-12.8 18.7a2.2 2.2 0 0 0 1.1 2 5.5 5.5 0 0 0 3.1.7 9.1 9.1 0 0 0 4.6-.9 3.1 3.1 0 0 0 1.4-2.5c0-.9-.2-1.5-.8-1.8s-1.5-.5-3-.5h-2.9a3.5 3.5 0 0 0-2.6.8 2.7 2.7 0 0 0-.9 2.2zm1.3-13.6a3.3 3.3 0 0 0 1 2.6 4 4 0 0 0 2.6.8c2.4 0 3.6-1.1 3.6-3.4s-1.2-3.6-3.6-3.6a3.2 3.2 0 0 0-3.6 3.6zm15.6-5.1v10.4a4 4 0 0 0 .9 2.9 3.4 3.4 0 0 0 2.8 1 4.4 4.4 0 0 0 3.6-1.4q1.2-1.3 1.2-4.5v-8.4h2.4v16h-2l-.3-2.1h-.1a4.6 4.6 0 0 1-2.1 1.8 7.3 7.3 0 0 1-3 .6c-2 0-3.5-.4-4.4-1.4a5.7 5.7 0 0 1-1.5-4.4v-10.5zm17 16h-2.4v-22.8h2.4zm13.6 0l-.5-2.3h-.1a7.5 7.5 0 0 1-2.4 2.1 8.5 8.5 0 0 1-3 .5 5.6 5.6 0 0 1-3.8-1.2 4.5 4.5 0 0 1-1.3-3.5q0-4.9 7.8-5.1h2.7v-1a4.3 4.3 0 0 0-.8-2.8 3.4 3.4 0 0 0-2.6-.9 10.9 10.9 0 0 0-4.6 1.2l-.7-1.8a10 10 0 0 1 2.6-1 9 9 0 0 1 2.8-.4 6 6 0 0 1 4.3 1.3 5.3 5.3 0 0 1 1.4 4.1v10.9zm-5.5-1.7a4.8 4.8 0 0 0 3.5-1.2 4.6 4.6 0 0 0 1.3-3.5v-1.5H702a10.1 10.1 0 0 0-4.2.9 3 3 0 0 0-1.3 2.5 2.5 2.5 0 0 0 .8 2 3.3 3.3 0 0 0 2.3.8zm18.1-14.6a5.8 5.8 0 0 1 1.9.2l-.3 2.2-1.8-.2a4.1 4.1 0 0 0-3.3 1.6 5.6 5.6 0 0 0-1.4 3.9v8.6h-2.4v-16h2l.3 2.9h.1a8.3 8.3 0 0 1 2.1-2.4 5.7 5.7 0 0 1 2.8-.8zm-247.5-87.5L539 38.4h25.5l73.2 178.9h-27l-20.8-54.2H515l-19.6 54.2zm51.7-73.5h60.6l-18.6-49.5c-5.7-15.1-10-27.4-12.7-37.1a226.2 226.2 0 0 1-9.7 34.1zm235.5 57.5c-8.1 7-15.9 11.8-23.5 14.7a68.8 68.8 0 0 1-24.2 4.3c-14.2 0-25.2-3.5-32.8-10.5s-11.5-15.8-11.5-26.7a35 35 0 0 1 4.3-17.3 35.9 35.9 0 0 1 11.4-12.7 51.8 51.8 0 0 1 15.8-7.2 172.9 172.9 0 0 1 19.5-3.3c17.8-2.1 30.8-4.6 39.2-7.5.1-3.1.1-5 .1-5.8 0-8.9-2.1-15.2-6.2-18.9s-14-7.5-25-7.5-18 1.9-22.9 5.5-8.6 10-10.9 19.2l-21.5-2.9c1.9-9.2 5.1-16.6 9.6-22.3s11-10 19.4-13.1 18.3-4.5 29.4-4.5 20.1 1.3 27 3.9 12 5.8 15.3 9.8a34.8 34.8 0 0 1 6.8 14.9c.7 3.8 1.1 10.5 1.1 20.3V163c0 20.4.5 33.4 1.4 38.8a48.9 48.9 0 0 0 5.6 15.5h-23a46.9 46.9 0 0 1-4.4-16zm-1.8-49c-8 3.2-19.9 6-35.9 8.3-9 1.3-15.4 2.7-19.2 4.4a18.9 18.9 0 0 0-8.6 7.1 18.2 18.2 0 0 0-3.1 10.4 18.6 18.6 0 0 0 6.7 14.7c4.4 3.9 10.9 5.8 19.4 5.8a45.3 45.3 0 0 0 22.6-5.5 34.5 34.5 0 0 0 14.6-15.2c2.3-5 3.5-12.3 3.5-22zm-542.5 62.3H183l-12.1-38.1h-55.2l-11.4 38.1H74.6l53.8-168.2h29.5zM161.9 148l-19-62.4-18.7 62.4zm97.9-18.2l-24-5.3c2.9-12.3 7.7-21.2 14.4-26.6s16.3-8 28.9-8c11.1 0 19.7 1.5 25.6 4.7a27.4 27.4 0 0 1 12.6 12.8c2.5 5.4 3.8 15.2 3.8 29.4l-.3 37.7a165.3 165.3 0 0 0 1.3 23.6 76.9 76.9 0 0 0 4.7 16.5h-26.2l-3.4-13.3a49 49 0 0 1-14.5 12.1 35.4 35.4 0 0 1-16.5 4.1c-9.7 0-17.6-3.3-23.8-9.9s-9.3-15.2-9.3-26.1a41.2 41.2 0 0 1 3.7-18.1 30.9 30.9 0 0 1 10.7-12.2c4.6-3.1 12-5.8 22.1-8.2 12.2-2.8 20.7-5.5 25.5-7.9 0-6.8-.4-11.2-1.4-13.4a11.6 11.6 0 0 0-5.3-5.2c-2.5-1.3-6.2-2-10.8-2s-8.5 1.1-11.2 3.2-4.9 6.2-6.6 12.1zm35.3 26.3a137.9 137.9 0 0 1-15.7 4.8c-8.2 2.1-13.5 4.5-16 7.1s-3.8 6-3.8 10.2a17.4 17.4 0 0 0 4.2 11.8 13.3 13.3 0 0 0 10.5 4.7 19.1 19.1 0 0 0 11.1-3.8 20.1 20.1 0 0 0 7.6-9.2q2.1-5.2 2.1-19.2z"/></symbol><symbol id="cs1-2" viewBox="0 0 837 390"><path d="M88.8 301.6a7 7 0 0 0-5.6 2.4 9.8 9.8 0 0 0-2 6.4c0 2.8.6 5 1.9 6.5a7.3 7.3 0 0 0 5.7 2.3 20.5 20.5 0 0 0 5.1-.8v2.2a17.3 17.3 0 0 1-5.5.8c-3.2 0-5.6-.9-7.3-2.8a12.2 12.2 0 0 1-2.6-8.2 13.4 13.4 0 0 1 1.2-5.8 9.4 9.4 0 0 1 3.6-3.8 11 11 0 0 1 5.5-1.4 13.5 13.5 0 0 1 5.9 1.2l-1 2.2a11.4 11.4 0 0 0-4.9-1.2zm15.2 3.2a5.5 5.5 0 0 1 1.9.2l-.3 2.2-1.8-.2a4.1 4.1 0 0 0-3.3 1.6 5.6 5.6 0 0 0-1.4 3.9v8.6h-2.4v-16h2l.3 2.9h.1a8.3 8.3 0 0 1 2.1-2.4 5.7 5.7 0 0 1 2.8-.8zm17.3 8.3a9 9 0 0 1-2 6.1 6.8 6.8 0 0 1-5.5 2.2 7 7 0 0 1-3.8-1 7.4 7.4 0 0 1-2.6-2.9 9.9 9.9 0 0 1-.9-4.4 8.8 8.8 0 0 1 2-6.1 7.7 7.7 0 0 1 10.8 0 9 9 0 0 1 2 6.1zm-12.2 0a8 8 0 0 0 1.2 4.7 4.4 4.4 0 0 0 3.6 1.6 4.1 4.1 0 0 0 3.6-1.6 7.3 7.3 0 0 0 1.3-4.7 7.1 7.1 0 0 0-1.3-4.7 4.9 4.9 0 0 0-7.2 0 7.8 7.8 0 0 0-1.2 4.7zm25.9 8v-10.4a4.2 4.2 0 0 0-.9-2.9 3.8 3.8 0 0 0-2.8-1 4.4 4.4 0 0 0-3.6 1.4q-1.2 1.4-1.2 4.5v8.4h-2.4v-16h1.9l.4 2.2h.1a5.5 5.5 0 0 1 2.1-1.9 7.3 7.3 0 0 1 3-.6c2 0 3.4.4 4.4 1.4s1.5 2.4 1.5 4.5v10.4zm19.8-8a8.5 8.5 0 0 1-2 6.1 7.7 7.7 0 0 1-9.2 1.2 6.1 6.1 0 0 1-2.6-2.9 9.9 9.9 0 0 1-.9-4.4c0-2.6.6-4.7 1.9-6.1a6.9 6.9 0 0 1 5.5-2.2 6.7 6.7 0 0 1 5.3 2.2 8.5 8.5 0 0 1 2 6.1zm-12.2 0a8 8 0 0 0 1.2 4.7 4.4 4.4 0 0 0 3.6 1.6 4.4 4.4 0 0 0 3.7-1.6 8 8 0 0 0 1.2-4.7 7.8 7.8 0 0 0-1.2-4.7 4.7 4.7 0 0 0-3.7-1.6 4.4 4.4 0 0 0-3.6 1.6 7.8 7.8 0 0 0-1.2 4.7zm25.3 3.6a4.1 4.1 0 0 1-1.6 3.5 8 8 0 0 1-4.7 1.2 10.1 10.1 0 0 1-5-1v-2.2a18.4 18.4 0 0 0 2.5.9l2.5.3a6.1 6.1 0 0 0 3-.6 1.9 1.9 0 0 0 1-1.8 2.3 2.3 0 0 0-.8-1.7 16.4 16.4 0 0 0-3.2-1.5 25.5 25.5 0 0 1-3.2-1.5 4.7 4.7 0 0 1-1.4-1.4 3.8 3.8 0 0 1-.4-1.9 3.6 3.6 0 0 1 1.6-3.1 7.6 7.6 0 0 1 4.3-1.1 12.5 12.5 0 0 1 5.1 1l-.9 2a10.6 10.6 0 0 0-4.3-1 4.3 4.3 0 0 0-2.6.6 1.6 1.6 0 0 0-.9 1.5 2.3 2.3 0 0 0 .3 1.1 3.5 3.5 0 0 0 1.1.8 17.3 17.3 0 0 0 2.8 1.2 9.7 9.7 0 0 1 3.8 2.1 3.5 3.5 0 0 1 1 2.6zm22.7-10.7a6.1 6.1 0 0 1-2.2 5 10.5 10.5 0 0 1-6.3 1.7h-2.6v8.4h-2.4v-21.4h5.5c5.4 0 8 2.1 8 6.3zm-11.1 4.6h2.3a8.5 8.5 0 0 0 4.8-1.1 3.9 3.9 0 0 0 1.5-3.4 3.9 3.9 0 0 0-1.4-3.2 7.5 7.5 0 0 0-4.4-1h-2.8zm21.1-5.8a5.8 5.8 0 0 1 1.9.2l-.3 2.2-1.8-.2a4.1 4.1 0 0 0-3.3 1.6 5.2 5.2 0 0 0-1.4 3.9v8.6h-2.5v-16h2.1l.2 2.9h.2a7 7 0 0 1 2.1-2.4 5.4 5.4 0 0 1 2.8-.8zm17.3 8.3a9 9 0 0 1-2 6.1 7.9 7.9 0 0 1-9.3 1.2 6.7 6.7 0 0 1-2.6-2.9 9.9 9.9 0 0 1-.9-4.4 8.8 8.8 0 0 1 2-6.1 6.7 6.7 0 0 1 5.4-2.2 6.9 6.9 0 0 1 5.4 2.2 9 9 0 0 1 2 6.1zm-12.3 0a7.3 7.3 0 0 0 1.3 4.7 4.4 4.4 0 0 0 3.6 1.6 4.1 4.1 0 0 0 3.6-1.6 8 8 0 0 0 1.2-4.7 7.8 7.8 0 0 0-1.2-4.7 4.5 4.5 0 0 0-3.7-1.6 4.4 4.4 0 0 0-3.6 1.6 7.8 7.8 0 0 0-1.2 4.7zm20 1.1V312h7.2v2.2zm33.2-4c0 3.6-.9 6.3-2.9 8.1s-4.6 2.8-8.2 2.8h-6v-21.4h6.6c3.3 0 5.9.9 7.7 2.8s2.8 4.4 2.8 7.7zm-2.6.1q0-4.2-2.1-6.3t-6.3-2.1h-3.6V319h3c3 0 5.2-.8 6.7-2.2a8.7 8.7 0 0 0 2.3-6.5zm5.3-9.6a2.1 2.1 0 0 1 .4-1.2 1.4 1.4 0 0 1 1.1-.4 1.4 1.4 0 0 1 1 .4 2.1 2.1 0 0 1 .4 1.2 1.7 1.7 0 0 1-.4 1.2 1.4 1.4 0 0 1-1 .4 1.4 1.4 0 0 1-1.1-.4 1.7 1.7 0 0 1-.4-1.2zm2.7 20.4h-2.5v-16h2.5zm14-4.4a4.1 4.1 0 0 1-1.7 3.5 8 8 0 0 1-4.7 1.2 10.1 10.1 0 0 1-5-1v-2.2a18.4 18.4 0 0 0 2.5.9 11.5 11.5 0 0 0 2.6.3 6 6 0 0 0 2.9-.6 1.9 1.9 0 0 0 1-1.8 2 2 0 0 0-.8-1.7 13.9 13.9 0 0 0-3.2-1.5 18 18 0 0 1-3.1-1.5 5.1 5.1 0 0 1-1.5-1.4 3.8 3.8 0 0 1-.4-1.9 3.6 3.6 0 0 1 1.6-3.1 7.7 7.7 0 0 1 4.4-1.1 12.4 12.4 0 0 1 5 1l-.8 2a11.1 11.1 0 0 0-4.4-1 4.5 4.5 0 0 0-2.6.6 1.6 1.6 0 0 0-.9 1.5 2.3 2.3 0 0 0 .3 1.1l1.1.8a17.3 17.3 0 0 0 2.8 1.2 11.2 11.2 0 0 1 3.9 2.1 4 4 0 0 1 1 2.6zm9.9 4.7a6.8 6.8 0 0 1-2.9-.6 4.3 4.3 0 0 1-2.1-1.7h-.2a24.6 24.6 0 0 1 .2 2.6v6.6h-2.5v-23.2h2l.3 2.2h.2a5.4 5.4 0 0 1 2.1-1.9 6.8 6.8 0 0 1 2.9-.6 5.7 5.7 0 0 1 4.9 2.2 11.2 11.2 0 0 1 0 12.2 5.9 5.9 0 0 1-4.9 2.2zm-.4-14.6a4.2 4.2 0 0 0-3.5 1.4 7.1 7.1 0 0 0-1.1 4.3v.6c0 2.2.3 3.9 1.1 4.8a4.1 4.1 0 0 0 3.6 1.5 3.9 3.9 0 0 0 3.3-1.7 8.7 8.7 0 0 0 1.1-4.6 8.2 8.2 0 0 0-1.1-4.6 4 4 0 0 0-3.4-1.7zm12.2 14.3h-2.4v-22.8h2.4zm13.6 0l-.5-2.3h-.1a7.5 7.5 0 0 1-2.4 2.1 8.5 8.5 0 0 1-3 .5 5.3 5.3 0 0 1-3.7-1.2 4.2 4.2 0 0 1-1.4-3.5q0-4.9 7.8-5.1h2.7v-1a4.3 4.3 0 0 0-.8-2.8 3.4 3.4 0 0 0-2.6-.9 10.9 10.9 0 0 0-4.6 1.2l-.7-1.8a11.7 11.7 0 0 1 2.6-1 9 9 0 0 1 2.8-.4 6 6 0 0 1 4.3 1.3 5.3 5.3 0 0 1 1.4 4.1v10.9zm-5.5-1.7a4.8 4.8 0 0 0 3.5-1.2 4.6 4.6 0 0 0 1.3-3.5v-1.5h-2.4a10.1 10.1 0 0 0-4.2.9 3 3 0 0 0-1.3 2.5 2.5 2.5 0 0 0 .8 2 3.3 3.3 0 0 0 2.3.8zm8.2-14.3h2.6l3.6 9.1a47.1 47.1 0 0 1 1.4 4.6h.1c.1-.5.4-1.4.8-2.6s1.7-4.9 4-11.1h2.6l-6.9 18.3a9.6 9.6 0 0 1-2.4 3.8 4.8 4.8 0 0 1-3.4 1.1 8.6 8.6 0 0 1-2.2-.2v-2a5.5 5.5 0 0 0 1.8.2c1.7 0 2.9-.9 3.6-2.8l.9-2.3zm212.3.9a6.1 6.1 0 0 1-2.3 5 10.3 10.3 0 0 1-6.3 1.7h-2.5v8.4h-2.5v-21.4h5.5q8.1 0 8.1 6.3zm-11.1 4.6h2.2a8.5 8.5 0 0 0 4.8-1.1 3.9 3.9 0 0 0 1.5-3.4 3.9 3.9 0 0 0-1.4-3.2 7.2 7.2 0 0 0-4.3-1h-2.8zm21-5.8a5.5 5.5 0 0 1 1.9.2l-.3 2.2-1.8-.2a4.1 4.1 0 0 0-3.3 1.6 5.6 5.6 0 0 0-1.4 3.9v8.6h-2.4v-16h2l.3 2.9h.1a8.3 8.3 0 0 1 2.1-2.4 5.7 5.7 0 0 1 2.8-.8zm17.3 8.3a9 9 0 0 1-2 6.1 6.8 6.8 0 0 1-5.5 2.2 7 7 0 0 1-3.8-1 6.7 6.7 0 0 1-2.6-2.9 9.9 9.9 0 0 1-.9-4.4 8.8 8.8 0 0 1 2-6.1 7.7 7.7 0 0 1 10.8 0 9 9 0 0 1 2 6.1zm-12.2 0a8 8 0 0 0 1.2 4.7 4.4 4.4 0 0 0 3.6 1.6 4.1 4.1 0 0 0 3.6-1.6 7.3 7.3 0 0 0 1.3-4.7 7.1 7.1 0 0 0-1.3-4.7 4.9 4.9 0 0 0-7.2 0 7.8 7.8 0 0 0-1.2 4.7zm28.1-8v1.5l-3 .4a4 4 0 0 1 .7 1.3 4.1 4.1 0 0 1 .4 1.9 4.9 4.9 0 0 1-1.6 3.7 6.4 6.4 0 0 1-4.5 1.4h-1.3c-1.1.6-1.6 1.3-1.6 2.1a1.1 1.1 0 0 0 .6 1 3.9 3.9 0 0 0 1.8.3h2.9a6.1 6.1 0 0 1 4 1.1 3.9 3.9 0 0 1 1.4 3.2 4.4 4.4 0 0 1-2.2 4c-1.4 1-3.5 1.4-6.2 1.4a9.6 9.6 0 0 1-4.9-1.1 3.9 3.9 0 0 1-1.7-3.3 4 4 0 0 1 1-2.6 4.4 4.4 0 0 1 2.6-1.4 2.8 2.8 0 0 1-1-.9 2.1 2.1 0 0 1-.4-1.4 2.6 2.6 0 0 1 .4-1.5 5 5 0 0 1 1.5-1.3 4.1 4.1 0 0 1-2-1.7 5.4 5.4 0 0 1-.8-2.8 5.1 5.1 0 0 1 1.6-4.1 6.5 6.5 0 0 1 4.5-1.4 7.3 7.3 0 0 1 2.2.3zm-12.8 18.7a2.2 2.2 0 0 0 1.1 2 5.5 5.5 0 0 0 3.1.7 9.1 9.1 0 0 0 4.6-.9 3.1 3.1 0 0 0 1.4-2.5c0-.9-.2-1.5-.8-1.8s-1.5-.5-3-.5h-2.9a3.5 3.5 0 0 0-2.6.8 2.7 2.7 0 0 0-.9 2.2zm1.3-13.6a3.3 3.3 0 0 0 1 2.6 4 4 0 0 0 2.6.8c2.4 0 3.6-1.1 3.6-3.4s-1.2-3.6-3.6-3.6a3.2 3.2 0 0 0-3.6 3.6zm20.6-5.4a5.5 5.5 0 0 1 1.9.2l-.3 2.2-1.8-.2a4.1 4.1 0 0 0-3.3 1.6 5.6 5.6 0 0 0-1.4 3.9v8.6h-2.4v-16h2l.3 2.9h.1a8.3 8.3 0 0 1 2.1-2.4 5.7 5.7 0 0 1 2.8-.8zm13.3 16.3l-.5-2.3h-.1a7.5 7.5 0 0 1-2.4 2.1 8.5 8.5 0 0 1-3 .5 5.3 5.3 0 0 1-3.7-1.2 4.5 4.5 0 0 1-1.4-3.5q0-4.9 7.8-5.1h2.7v-1a3.8 3.8 0 0 0-.8-2.8 3.3 3.3 0 0 0-2.6-.9 10.8 10.8 0 0 0-4.5 1.2l-.8-1.8a11.7 11.7 0 0 1 2.6-1 9.7 9.7 0 0 1 2.9-.4 5.7 5.7 0 0 1 4.2 1.3 5.3 5.3 0 0 1 1.4 4.1v10.9zm-5.5-1.7a5.2 5.2 0 0 0 3.6-1.2 5 5 0 0 0 1.3-3.5v-1.5h-2.5a9.2 9.2 0 0 0-4.1.9 2.8 2.8 0 0 0-1.3 2.5 2.2 2.2 0 0 0 .8 2 3.1 3.1 0 0 0 2.2.8zm31.3 1.7v-10.4a4.6 4.6 0 0 0-.8-2.9 3.5 3.5 0 0 0-2.6-1 3.9 3.9 0 0 0-3.3 1.4c-.8.8-1.1 2.2-1.1 4v8.9h-2.5v-10.4a4 4 0 0 0-.8-2.9 3.2 3.2 0 0 0-2.5-1 4 4 0 0 0-3.4 1.4 7.4 7.4 0 0 0-1.1 4.5v8.4h-2.4v-16h2l.4 2.2h.1a5.8 5.8 0 0 1 1.9-1.9 6.7 6.7 0 0 1 2.8-.6c2.6 0 4.2.9 5 2.7h.1a5.8 5.8 0 0 1 2.1-2 6.2 6.2 0 0 1 3.1-.7 5.4 5.4 0 0 1 4.1 1.4c.9.9 1.3 2.4 1.3 4.5v10.4zm31.2-10.7a12.1 12.1 0 0 1-2.6 8.1 9.6 9.6 0 0 1-7.3 2.9c-3.1 0-5.6-.9-7.3-2.9s-2.5-4.6-2.5-8.1.8-6.2 2.5-8.1 4.2-2.9 7.4-2.9a9.5 9.5 0 0 1 7.2 2.9 12.1 12.1 0 0 1 2.6 8.1zm-17.1 0c0 2.9.6 5.1 1.9 6.6a6.4 6.4 0 0 0 5.3 2.2 6.5 6.5 0 0 0 5.4-2.2q1.8-2.2 1.8-6.6t-1.8-6.6a6.4 6.4 0 0 0-5.3-2.2 6.5 6.5 0 0 0-5.4 2.3c-1.3 1.5-1.9 3.6-1.9 6.5zm26.9 10.7h-2.5v-19.2h-6.7v-2.2h16v2.2h-6.8zm13.1-6.9V312h7.2v2.2zm16.2-14.5h6c2.9 0 4.9.4 6.2 1.3a4.4 4.4 0 0 1 1.9 4 5 5 0 0 1-1.1 3.2 5.4 5.4 0 0 1-3.1 1.6c3.3.6 4.9 2.3 4.9 5.1a5.5 5.5 0 0 1-1.9 4.5 8.2 8.2 0 0 1-5.5 1.6h-7.4zm2.5 9.2h4.1a7.4 7.4 0 0 0 3.8-.8 3.5 3.5 0 0 0 1.1-2.8 2.7 2.7 0 0 0-1.3-2.6c-.8-.6-2.2-.8-4.1-.8h-3.6zm0 2.1v8h4.4a5.9 5.9 0 0 0 3.9-1 3.7 3.7 0 0 0 1.4-3.1 3.5 3.5 0 0 0-1.4-3 7.3 7.3 0 0 0-4.1-.9zm28.9 2.1a9 9 0 0 1-2 6.1 6.7 6.7 0 0 1-5.4 2.2 7.3 7.3 0 0 1-3.9-1 6.5 6.5 0 0 1-2.5-2.9 9.9 9.9 0 0 1-.9-4.4c0-2.6.6-4.7 1.9-6.1a6.8 6.8 0 0 1 5.5-2.2 6.7 6.7 0 0 1 5.3 2.2 9 9 0 0 1 2 6.1zm-12.2 0a8 8 0 0 0 1.2 4.7 4.4 4.4 0 0 0 3.6 1.6 4.4 4.4 0 0 0 3.7-1.6 8 8 0 0 0 1.2-4.7 7.8 7.8 0 0 0-1.2-4.7 4.7 4.7 0 0 0-3.7-1.6 4.4 4.4 0 0 0-3.6 1.6 7.8 7.8 0 0 0-1.2 4.7zm28.8 0a8.9 8.9 0 0 1-1.9 6.1 7.1 7.1 0 0 1-5.5 2.2 7 7 0 0 1-3.8-1 6.7 6.7 0 0 1-2.6-2.9 9.9 9.9 0 0 1-.9-4.4c0-2.6.6-4.7 1.9-6.1a6.9 6.9 0 0 1 5.5-2.2 6.7 6.7 0 0 1 5.3 2.2 8.5 8.5 0 0 1 2 6.1zm-12.2 0a8 8 0 0 0 1.2 4.7 4.5 4.5 0 0 0 3.6 1.6 4.4 4.4 0 0 0 3.7-1.6 8 8 0 0 0 1.2-4.7 7.8 7.8 0 0 0-1.2-4.7 4.7 4.7 0 0 0-3.7-1.6 4.4 4.4 0 0 0-3.6 1.6 7.8 7.8 0 0 0-1.2 4.7zm17.4-.2a24.9 24.9 0 0 1 1.9-2.3l5.2-5.5h2.9l-6.5 6.8 6.9 9.2h-2.9l-5.7-7.6-1.8 1.6v6h-2.4v-22.8h2.4v12.1c0 .6 0 1.4-.1 2.5zM508.4 234c-1.1 3.4-2.8 4.8-6.4 4.8h-9a4.7 4.7 0 0 1-5-5c0-2.8 1.9-7.3 3.3-11.2l59.1-158.2c1.1-3.1 2.5-5.1 5.6-5.1h6.7c3.1 0 4.5 2 5.6 5.1l59.1 158.2c1.4 3.9 3.4 8.4 3.4 11.2a4.8 4.8 0 0 1-5.1 5h-8.9c-3.4 0-5.4-1.4-6.5-4.8L593 185.3h-67.2zm59.4-118.7c-2.6-6.7-7-19.3-7-21s-.3-2.5-1.4-2.5-1.4.8-1.4 2.5-4.8 14.3-7 21l-19.4 53.8h55.5zm96.8 84.6c0-20.7 13.8-44.8 55.8-44.8a151.2 151.2 0 0 1 26 2.5v-1.4c0-25.5-1.4-38.1-24.1-38.1-15.7 0-33.6 6.2-41.1 10.9a7.2 7.2 0 0 1-4 1.4c-2.5 0-4.2-1.6-4.2-4.4v-7.9c0-3.1 2-5.6 6.8-8.1 10-5 29.6-8.4 44.5-8.4 37.2 0 41.1 19.3 41.1 46.2v71.7c0 6.4 2.3 8.9 7 8.9v3.4c0 3.9-3.9 8.7-13.7 8.7-7 0-12.3-3.7-12.3-14.3V224c-7.3 8.4-18.5 16.8-38.9 16.8-22.4 0-42.9-10.4-42.9-40.9zm81.8 7.5v-35a134.6 134.6 0 0 0-23.5-2.5c-28 0-39.2 12.1-39.2 29.7 0 20.4 12.3 25.5 28 25.5s28.8-8.4 34.7-17.7zM99.4 179c-10.3 24.7-19.9 46.2-24.6 56.3-.9 2-2.5 3.1-5.6 3.1a34.6 34.6 0 0 1-13.7-3.4l-.3-.8c15.7-34.4 62.7-142 71.7-163l-3.1-7.5c5.6-1.4 13.7-2.8 17.1-2.8s5.3 1.9 6.4 4.7C160.2 95 184.8 155.2 196 181s18.2 43.4 23.3 53.2l-.3 1.1c-5.3 2.3-15.4 3.1-19.6 3.1s-5.3-1.7-8.1-8.7c-5.9-14.5-11-26.9-21.6-50.7zm65.3-14.8c-15.4-39.2-26.1-64.1-29.7-72.5-9.5 22.4-18.8 44.8-30 72.5zm185.9 59.6c.3 10.7-6.7 16.3-16.8 16.3s-17.1-8.4-18.5-18.2c-8.4 10.1-21.8 18.2-36.1 18.2-19.1 0-31.9-14-31.9-30.8 0-30.3 41.1-38.4 55.7-41.5 4.7-1.1 9.2-1.9 12.3-2.5l.3-10.3c0-14.3-8.1-26.6-24.9-26.6-11.8 0-22.2 5.8-30.8 12.3-6.2 1.1-9.3-6.2-9.3-10.7 10.1-8.4 27.7-19 45.7-19 27.7 0 40.8 19.6 40.8 45.9 0 12.3-1.1 40.3-.8 57.4 0 5.9 3.1 9.8 9.8 9.8a12.5 12.5 0 0 0 4.2-.8zm-61.3 0c12.3 0 19.3-7.2 23.8-13.1 1.1-1.7 1.9-3.9 1.9-8.7v-24.9c-22.4 3.9-45.1 11.5-45.1 28 0 11.2 8.7 18.7 19.4 18.7z"/></symbol><symbol id="cs2-1" viewBox="0 0 638 303"><path fill="#707070" d="M20 20h84v266H20z"/><path fill="#5d5d5e" d="M122 20h84v266h-84z"/><path fill="#625845" d="M226 20h84v266h-84z"/><path fill="#ffce07" d="M330 20h84v266h-84z"/><path fill="#ffe996" d="M434 20h84v266h-84z"/><path fill="#ffebd1" d="M538 20h84v266h-84z"/></symbol></svg>